<svg width="2486" height="2154" viewBox="0 0 2486 2154" fill="none" xmlns="http://www.w3.org/2000/svg">
<path d="M282.223 1163.29C302.552 1173.13 318.507 1196.74 337.345 1209.26C374.425 1233.97 380.19 1228.15 422.489 1242.17C450.423 1251.41 497.543 1288.89 543.917 1281.19C592.081 1273.18 647.551 1249.08 695.516 1258.32L696.958 1253.15C696.958 1253.15 577.517 1154.44 546.601 1140.92C515.685 1127.4 467.67 1118.1 431.287 1131.47C394.903 1144.85 388.69 1164.63 356.73 1164.73C324.77 1164.78 312.194 1162.64 298.625 1161.65C285.056 1160.6 282.223 1163.29 282.223 1163.29Z" fill="#EBEBEB"/>
<path d="M695.516 1258.32C560.22 1162.54 476.915 1228.6 337.494 1182.37C320.594 1176.76 304.093 1170.05 288.286 1161.99C337.047 1183.47 389.634 1194.35 442.619 1196.54C460.264 1197.38 477.909 1196.94 495.654 1196.54C568.024 1193.61 638.853 1211.9 695.516 1258.37V1258.32Z" fill="#E0E0E0"/>
<path d="M510.168 1199.77C495.405 1191.92 478.407 1183.86 463.893 1175.31C445.154 1163.44 429 1146.24 406.235 1141.91C432.778 1141.91 451.218 1162.69 472.79 1174.97C485.266 1182.82 498.934 1190.33 510.168 1199.77Z" fill="#E0E0E0"/>
<path d="M601.873 1213.59C582.09 1211.15 561.115 1213.84 544.812 1225.47C539.742 1228.95 535.915 1234.76 530.845 1239.58C521.003 1249.47 507.533 1256.23 493.566 1256.98C479.798 1258.17 466.229 1256.58 452.858 1254.39C459.618 1254.39 466.378 1254.69 473.138 1254.54C497.692 1255.34 518.667 1248.48 534.274 1228.8C550.727 1210.51 579.207 1207.37 601.922 1213.64L601.873 1213.59Z" fill="#E0E0E0"/>
<path d="M628.514 1221.04C585.52 1191.42 553.063 1146.73 502.961 1127.9C555.896 1140.47 589.993 1186.25 628.514 1221.04Z" fill="#E0E0E0"/>
<path d="M2349.63 836.18C2328.21 851.092 2314.24 880.915 2295.06 898.609C2257.18 933.502 2249.58 927.885 2203.8 951.495C2173.58 967.102 2126.56 1018.35 2072.23 1017.9C2015.82 1017.45 1948.12 999.957 1895.09 1019.14L1892.5 1013.53C1892.5 1013.53 2011.05 879.324 2043.85 858.349C2076.71 837.324 2129.84 818.088 2173.78 826.786C2217.72 835.534 2228.36 856.957 2264.84 851.291C2301.32 845.624 2315.29 840.902 2330.6 837.274C2345.91 833.645 2349.63 836.18 2349.63 836.18Z" fill="#EBEBEB"/>
<path d="M1895.09 1019.14C1952.1 955.869 2028.44 922.816 2112.05 912.974C2132.38 910.29 2152.56 907.606 2172.59 903.431C2232.73 891.303 2290.78 869.333 2342.43 835.833C2325.78 847.861 2308.13 858.398 2289.84 867.793C2234.77 895.925 2173.68 910.538 2112.64 917.845C2030.23 926.941 1953.69 959.547 1894.99 1019.14H1895.09Z" fill="#E0E0E0"/>
<path d="M2096.04 918.889C2095.89 918.491 2096.79 917.795 2097.19 917.348L2098.73 915.757C2100.61 913.869 2106.18 908.699 2108.22 906.811C2115.92 900.051 2126.71 890.557 2134.46 884.096C2156.88 866.252 2174.08 839.312 2204.25 834.093C2178.85 842.741 2163.44 865.307 2144.21 882.306C2137.64 887.575 2130.39 893.341 2123.63 898.311C2119.06 901.691 2107.18 910.588 2102.65 913.769L2099.17 916.354C2098.53 916.95 2096.24 918.243 2096.04 918.939V918.889Z" fill="#E0E0E0"/>
<path d="M1993.9 951.246C2018.7 940.361 2051.61 938.82 2073.58 956.664C2095.54 976.645 2119.75 980.324 2148.23 974.955C2155.94 973.862 2163.59 972.271 2171.29 970.979C2156.38 975.701 2141.22 979.926 2125.27 980.97C2109.26 982.51 2092.76 977.292 2079.84 967.798C2073.23 963.275 2067.81 957.261 2061.25 954.229C2040.47 943.94 2015.97 944.735 1993.85 951.296L1993.9 951.246Z" fill="#E0E0E0"/>
<path d="M1964.87 964.567C2002.99 918.243 2033.51 859.939 2091.37 835.584C2037.29 865.755 2008.26 922.617 1964.87 964.567Z" fill="#E0E0E0"/>
<path d="M535.368 251.903C551.671 283.266 549.583 327.752 561.463 361.004C584.874 426.614 597.499 424.726 637.461 481.787C663.805 519.463 687.862 610.422 753.173 644.171C821.02 679.163 913.073 700.785 964.517 757.2L971.128 752.08C971.128 752.08 913.67 516.779 887.575 470.951C861.48 425.123 809.936 368.56 751.831 351.362C693.727 334.164 667.433 353.101 627.371 323.378C587.26 293.605 573.491 279.191 557.437 265.174C541.382 251.157 535.368 251.903 535.368 251.903Z" fill="#EBEBEB"/>
<path d="M964.517 757.15C940.112 677.474 895.527 604.805 833.098 549.534C812.67 530.944 790.75 513.995 768.184 498.09C722.605 466.478 678.815 431.635 640.493 391.225C602.221 350.915 569.267 305.435 544.166 255.879C571.155 304.341 604.606 349.026 643.326 388.491C681.897 428.305 725.488 462.551 771.017 494.064C865.705 559.326 934.794 644.718 964.517 757.15Z" fill="#E0E0E0"/>
<path d="M787.022 510.615C787.519 511.162 786.774 509.522 786.823 509.522C786.476 508.677 785.382 506.341 784.984 505.496C780.461 495.952 772.011 478.059 767.538 468.317C762.717 458.078 757.697 446.596 753.173 436.158C745.469 418.413 742.785 398.184 735.081 380.389C729.365 366.025 721.661 352.356 710.875 340.974C723.152 350.915 731.999 364.633 738.61 378.898C747.507 396.742 750.092 416.028 757.697 434.269C762.071 444.806 766.942 456.288 771.117 466.776C775.59 478.109 783.046 496.499 786.674 507.981L787.072 509.373L787.221 510.069C787.221 510.069 787.37 510.814 787.072 510.516L787.022 510.615Z" fill="#E0E0E0"/>
<path d="M888.966 613.603C866.997 591.385 837.92 574.784 806.407 573.79C796.019 573.392 785.879 577.219 775.491 578.412C754.168 581.494 731.453 577.517 713.211 565.837C694.82 554.753 679.163 540.239 664.053 525.526C672.304 532.137 680.456 538.897 688.905 545.16C721.114 570.509 749.545 580.848 790.303 570.857C827.73 563.401 865.754 585.42 888.966 613.603Z" fill="#E0E0E0"/>
<path d="M915.359 647.85C903.331 608.533 896.571 567.776 888.867 527.465C881.163 487.453 867.146 448.186 845.077 413.741C898.013 480.097 897.615 568.422 915.359 647.85Z" fill="#E0E0E0"/>
<path d="M458.624 1919.14C457.63 1919.74 363.042 1974.66 284.608 1882.36C197.725 1780.17 282.173 1709.69 282.173 1709.69L458.624 1919.14Z" fill="#E0E0E0"/>
<path d="M473.237 1901.6C473.237 1901.6 450.423 1954.04 363.539 1900.85C276.656 1847.72 255.134 1777.93 266.615 1738.72C278.047 1699.5 297.581 1706.61 297.581 1706.61C297.581 1706.61 299.868 1695.37 328.199 1692.69C356.581 1690.01 418.96 1702.38 467.72 1772.27C510.913 1834.15 506.191 1889.17 473.237 1901.65V1901.6Z" fill="#F0F0F0"/>
<path d="M474.878 1903.09C436.903 1890.12 405.44 1860.09 395.201 1821.33C392.269 1810.14 390.678 1798.46 387.248 1787.13C383.769 1775.4 377.606 1764.21 369.653 1754.92C361.949 1745.72 352.207 1737.87 342.117 1731.61C327.205 1722.26 311.797 1713.76 295.941 1706.16C309.908 1716.8 324.223 1726.74 338.041 1737.47C351.461 1747.36 363.589 1760.09 371.094 1774.85C381.681 1795.08 380.836 1820.53 391.424 1841.26C406.882 1873.61 439.637 1898.32 474.878 1903.09Z" fill="#E0E0E0"/>
<g opacity="0.3">
<path d="M380.29 1717.84C383.57 1717.64 386.403 1719.33 389.087 1721.02C417.866 1739.06 445.701 1759.89 464.986 1787.38C480.444 1809.5 489.739 1836.63 487.502 1862.53C486.061 1879.03 467.72 1888.97 452.66 1880.67C452.163 1880.42 451.665 1880.13 451.218 1879.83C432.579 1868.05 425.421 1845.03 422.34 1823.86C419.208 1802.69 418.363 1780.32 406.882 1761.78C399.227 1749.35 387.447 1739.86 378.152 1728.48C376.264 1726.14 374.325 1723.16 375.816 1720.42C376.661 1718.83 378.451 1717.94 380.339 1717.84H380.29Z" fill="white"/>
</g>
<g opacity="0.3">
<path d="M357.873 1705.81L358.718 1706.36C362.197 1708.99 361.551 1715.36 357.624 1717.24C353.698 1719.13 348.33 1715.65 348.429 1711.33C348.528 1706.95 354.046 1703.77 357.873 1705.86V1705.81Z" fill="white"/>
</g>
<g opacity="0.3">
<path d="M283.068 1729.67V1729.57C285.901 1723.56 293.158 1721.17 299.221 1723.85C319.153 1732.7 339.93 1748.06 352.405 1765.06C355.984 1769.93 359.265 1775.25 359.116 1781.51C359.066 1783.85 358.42 1786.18 357.127 1788.12C352.952 1794.43 345.049 1793.84 338.389 1792.4C325.267 1789.61 312.294 1784.89 301.707 1776.69C291.12 1768.44 283.018 1756.41 281.477 1743.09C280.93 1738.57 281.228 1733.85 283.068 1729.72V1729.67Z" fill="white"/>
</g>
<path opacity="0.3" d="M328.895 1856.42C357.078 1884.2 393.014 1903.74 431.833 1911.49L440.184 1913.08C443.017 1913.43 445.8 1913.87 448.633 1914.32C445.8 1914.37 442.917 1914.42 440.035 1914.37C396.99 1912.88 354.394 1891.21 328.845 1856.37L328.895 1856.42Z" fill="white"/>
<path d="M1794.78 312.741C1794.68 313.984 1783.3 434.368 1649.84 445.602C1502.12 458.028 1493.03 336.798 1493.03 336.798L1794.78 312.741Z" fill="#E0E0E0"/>
<path d="M1788.37 288.287C1788.37 288.287 1820.83 342.514 1717.19 386.453C1613.56 430.392 1537.01 404.894 1509.08 369.404C1481.15 333.866 1500.08 320.893 1500.08 320.893C1500.08 320.893 1491.44 311.648 1507.24 284.41C1523.05 257.172 1574.29 209.008 1668.48 210.101C1751.89 211.046 1798.36 250.66 1788.32 288.287H1788.37Z" fill="#F0F0F0"/>
<path d="M1790.81 287.79C1754.77 313.586 1707.5 322.583 1666.1 306.876C1654.12 302.303 1642.64 296.239 1630.26 292.064C1617.49 287.64 1603.47 286.05 1590 287.193C1576.78 288.187 1563.51 291.915 1551.38 296.985C1533.39 304.391 1515.84 312.791 1498.79 322.135C1517.33 316.419 1535.47 309.958 1553.96 304.391C1571.51 298.675 1590.7 295.941 1608.84 298.725C1633.79 302.204 1656.21 319.302 1681.61 323.08C1720.62 329.989 1763.92 316.37 1790.81 287.79Z" fill="#E0E0E0"/>
<g opacity="0.3">
<path d="M1563.46 253.742C1565.4 250.66 1568.78 249.219 1572.01 247.877C1606.75 233.612 1643.33 221.931 1680.46 222.329C1710.28 222.627 1740.65 231.723 1762.52 250.412C1776.44 262.291 1773.61 285.205 1756.41 293.406C1755.86 293.655 1755.27 293.903 1754.72 294.152C1732.15 303.347 1706.9 294.997 1685.83 284.161C1664.81 273.326 1644.13 259.756 1620.12 258.166C1604.02 257.072 1587.91 261.546 1571.71 262.589C1568.38 262.788 1564.45 262.589 1562.96 259.508C1562.07 257.718 1562.41 255.531 1563.51 253.792L1563.46 253.742Z" fill="white"/>
</g>
<g opacity="0.3">
<path d="M1538.26 266.168L1539.25 265.77C1543.87 264.329 1549.14 269.001 1548.3 273.723C1547.45 278.445 1540.94 281.079 1537.06 278.147C1533.19 275.214 1533.88 268.255 1538.21 266.118L1538.26 266.168Z" fill="white"/>
</g>
<g opacity="0.3">
<path d="M1511.62 348.777V348.628C1507.94 342.266 1510.42 334.214 1516.74 330.486C1537.51 318.209 1564.65 309.461 1587.96 309.162C1594.62 309.063 1601.48 309.56 1607.05 313.735C1609.09 315.276 1610.78 317.364 1611.72 319.749C1614.7 327.603 1609.09 334.263 1603.52 339.383C1592.58 349.423 1580.01 358.022 1565.79 362.247C1551.58 366.472 1535.57 366.024 1522.6 358.867C1518.23 356.431 1514.15 353.201 1511.62 348.827V348.777Z" fill="white"/>
</g>
<path opacity="0.3" d="M1655.01 389.038C1698.21 381.88 1739.01 362.098 1770.78 331.977C1774.8 328.199 1780.27 322.533 1784.05 318.606C1782.26 321.191 1780.42 323.776 1778.53 326.311C1749.3 363.838 1702.68 388.093 1655.01 389.038Z" fill="white"/>
<path d="M2007.77 1876.25C2007.77 1877.34 2006.13 1984.26 1889.32 2003.44C1759.99 2024.72 1743.49 1918.5 1743.49 1918.5L2007.72 1876.2L2007.77 1876.25Z" fill="#E0E0E0"/>
<path d="M2000.41 1855.22C2000.41 1855.22 2032.82 1900.75 1944.54 1946.73C1856.27 1992.71 1787.03 1975.56 1759.94 1946.23C1732.85 1916.91 1748.66 1904.13 1748.66 1904.13C1748.66 1904.13 1740.41 1896.58 1752.43 1871.48C1764.46 1846.38 1806.26 1800.35 1889.32 1794.73C1962.88 1789.76 2006.57 1821.37 2000.41 1855.27V1855.22Z" fill="#F0F0F0"/>
<path d="M2002.5 1854.58C1972.53 1879.83 1931.52 1891.06 1893.94 1880.13C1883.06 1876.94 1872.52 1872.42 1861.29 1869.59C1849.71 1866.61 1837.23 1866.16 1825.45 1868.1C1813.87 1869.89 1802.39 1874.11 1792.1 1879.43C1776.74 1887.18 1761.88 1895.83 1747.51 1905.28C1763.42 1898.91 1778.98 1891.96 1794.93 1885.79C1809.99 1879.53 1826.69 1875.8 1842.9 1876.94C1865.16 1878.24 1886.09 1891.81 1908.76 1893.35C1943.65 1896.68 1980.83 1881.72 2002.55 1854.63L2002.5 1854.58Z" fill="#E0E0E0"/>
<g opacity="0.3">
<path d="M1799.75 1840.46C1801.24 1837.63 1804.13 1836.09 1806.86 1834.7C1836.48 1819.68 1867.95 1806.86 1900.65 1804.57C1926.95 1802.74 1954.33 1808.65 1974.91 1823.61C1988.03 1833.15 1987.09 1853.48 1972.53 1861.93C1972.03 1862.23 1971.58 1862.48 1971.08 1862.73C1951.8 1872.42 1928.98 1866.8 1909.7 1858.75C1890.41 1850.7 1871.23 1840.16 1849.95 1840.41C1835.69 1840.56 1821.77 1845.63 1807.61 1847.67C1804.67 1848.07 1801.19 1848.17 1799.65 1845.58C1798.76 1844.04 1798.91 1842.1 1799.75 1840.51V1840.46Z" fill="white"/>
</g>
<g opacity="0.3">
<path d="M1778.43 1853.19L1779.27 1852.79C1783.25 1851.2 1788.22 1854.93 1787.82 1859.2C1787.43 1863.42 1781.86 1866.16 1778.23 1863.87C1774.65 1861.59 1774.75 1855.37 1778.43 1853.19Z" fill="white"/>
</g>
<g opacity="0.3">
<path d="M1760.69 1927.84V1927.74C1757.01 1922.37 1758.65 1915.12 1763.92 1911.39C1781.36 1899.11 1804.67 1889.52 1825.2 1887.58C1831.07 1887.03 1837.18 1886.98 1842.35 1890.27C1844.29 1891.51 1845.88 1893.2 1846.87 1895.24C1850.05 1901.95 1845.53 1908.21 1841.01 1913.08C1832.06 1922.67 1821.57 1931.12 1809.35 1935.89C1797.12 1940.62 1782.95 1941.31 1771.02 1935.89C1767 1934.05 1763.17 1931.47 1760.64 1927.79L1760.69 1927.84Z" fill="white"/>
</g>
<path opacity="0.3" d="M1889.87 1953.29C1927.29 1943.65 1961.74 1923.42 1987.84 1894.84L1993.4 1888.63C1995.14 1886.44 1996.88 1884.3 1998.72 1882.16C1997.33 1884.6 1995.94 1886.98 1994.45 1889.37C1971.53 1924.71 1931.92 1949.46 1889.87 1953.24V1953.29Z" fill="white"/>
<path d="M2109.91 694.92C2109.26 695.218 2046.24 721.71 2004.98 658.238C1959.3 587.955 2017.26 551.025 2017.26 551.025L2109.91 694.87V694.92Z" fill="#E0E0E0"/>
<path d="M2120.35 685.227C2120.35 685.227 2102.01 715.895 2052.45 676.032C2002.85 636.169 1995.09 591.236 2005.33 567.825C2015.57 544.414 2027.1 550.379 2027.1 550.379C2027.1 550.379 2029.39 543.619 2047.18 544.215C2064.98 544.812 2102.65 557.437 2127.31 604.656C2149.13 646.458 2141.82 680.158 2120.4 685.277L2120.35 685.227Z" fill="#F0F0F0"/>
<path d="M2121.24 686.271C2098.73 675.236 2081.63 654.112 2078.4 629.26C2077.45 622.102 2077.4 614.746 2076.21 607.439C2074.97 599.884 2072.03 592.478 2067.86 586.066C2063.83 579.754 2058.42 574.137 2052.65 569.415C2044.15 562.407 2035.3 555.946 2026.06 549.981C2033.86 557.685 2041.91 564.992 2049.67 572.746C2057.17 579.953 2063.68 588.8 2067.16 598.542C2072.13 611.913 2069.55 627.619 2074.47 641.288C2081.48 662.562 2099.82 680.505 2121.24 686.221V686.271Z" fill="#E0E0E0"/>
<g opacity="0.3">
<path d="M2077.45 563.948C2079.49 564.097 2081.13 565.39 2082.67 566.632C2099.07 580.102 2114.68 595.212 2124.37 613.802C2132.18 628.763 2135.76 646.309 2132.33 662.164C2130.14 672.304 2117.96 676.976 2109.26 670.614C2108.97 670.415 2108.72 670.167 2108.42 669.968C2097.78 661.17 2095.2 646.358 2095 632.988C2094.75 619.617 2095.99 605.7 2090.38 593.324C2086.6 585.023 2080.09 578.164 2075.22 570.41C2074.22 568.819 2073.28 566.781 2074.42 565.241C2075.07 564.346 2076.26 563.899 2077.4 563.998L2077.45 563.948Z" fill="white"/>
</g>
<g opacity="0.3">
<path d="M2064.48 554.703L2064.93 555.101C2066.87 556.99 2065.97 560.867 2063.39 561.761C2060.8 562.606 2057.77 560.071 2058.17 557.338C2058.56 554.654 2062.24 553.113 2064.48 554.703Z" fill="white"/>
</g>
<g opacity="0.3">
<path d="M2016.22 563.551C2018.4 559.972 2023.13 559.077 2026.65 561.215C2038.33 568.273 2049.97 579.456 2056.33 590.988C2058.17 594.268 2059.76 597.847 2059.16 601.724C2058.96 603.165 2058.37 604.557 2057.42 605.65C2054.29 609.229 2049.47 608.235 2045.44 606.794C2037.54 604.01 2029.89 600.083 2023.97 594.119C2018.06 588.154 2014.03 580.102 2014.13 571.702C2014.13 568.869 2014.68 565.986 2016.22 563.551Z" fill="white"/>
</g>
<path opacity="0.3" d="M2034.51 645.712C2053.25 667.483 2076.66 682.692 2104.09 691.142C2075.41 689.949 2047.18 671.459 2034.51 645.712Z" fill="white"/>
<path d="M468.714 826.736C467.621 827.134 360.607 866.301 296.935 757.398C226.404 636.815 325.814 579.903 325.814 579.903L468.714 826.736Z" fill="#E0E0E0"/>
<path d="M486.856 811.378C486.856 811.378 453.952 860.983 374.524 790.701C295.096 720.418 285.702 644.967 304.59 606.794C323.477 568.621 342.166 579.456 342.166 579.456C342.166 579.456 346.54 568.372 376.115 570.758C405.689 573.144 467.422 597.151 504.7 677.672C537.704 748.998 522.942 804.568 486.856 811.328V811.378Z" fill="#F0F0F0"/>
<path d="M488.248 813.217C451.665 793.037 424.825 756.504 421.395 714.901C420.401 702.873 420.898 690.645 419.457 678.418C418.015 665.743 413.691 653.168 407.23 642.183C401.017 631.348 392.467 621.556 383.222 613.305C369.653 600.978 355.388 589.497 340.526 578.81C352.903 592.23 365.776 605.054 378.003 618.524C389.982 631.149 400.072 646.309 405.092 662.861C412.25 685.526 406.782 711.472 413.89 734.634C423.881 770.62 453.008 801.884 488.198 813.167L488.248 813.217Z" fill="#E0E0E0"/>
<g opacity="0.3">
<path d="M424.974 606.098C428.354 606.495 430.988 608.782 433.424 610.969C459.668 634.728 484.421 661.121 499.183 692.832C511.013 718.331 515.586 747.805 508.577 774C504.104 790.701 483.476 797.56 469.559 786.277C469.112 785.929 468.664 785.531 468.217 785.134C451.218 769.676 448.087 744.823 448.783 722.506C449.429 700.238 452.61 677.126 444.21 656.051C438.593 641.935 428.255 630.006 420.799 616.685C419.258 613.951 417.866 610.521 419.855 607.987C421.047 606.495 423.036 605.899 424.924 606.147L424.974 606.098Z" fill="white"/>
</g>
<g opacity="0.3">
<path d="M404.148 589.695L404.893 590.391C407.975 593.721 406.186 600.084 401.812 601.326C397.438 602.569 392.567 598.046 393.461 593.572C394.356 589.099 400.569 586.862 404.148 589.695Z" fill="white"/>
</g>
<g opacity="0.3">
<path d="M323.08 600.531L323.179 600.431C327.156 594.815 335.009 593.622 340.725 597.499C359.563 610.174 378.053 629.707 387.795 649.39C390.579 655.007 392.964 661.071 391.672 667.483C391.175 669.869 390.131 672.105 388.441 673.895C382.974 679.611 375.021 677.523 368.46 674.889C355.487 669.67 343.061 662.463 333.717 652.074C324.322 641.686 318.258 627.918 319.054 613.951C319.352 609.229 320.445 604.457 323.129 600.531H323.08Z" fill="white"/>
</g>
<path opacity="0.3" d="M347.087 738.809C370.846 772.509 404.148 799.101 442.619 814.062L450.92 817.193C453.753 818.088 456.536 818.983 459.37 819.977C456.437 819.529 453.505 819.032 450.572 818.436C406.733 808.992 367.068 779.07 347.087 738.809Z" fill="white"/>
<path d="M2206.49 1535.72H1308.08C1292.02 1535.72 1278.95 1522.65 1278.95 1506.6V197.974C1278.95 181.919 1292.02 168.847 1308.08 168.847H2206.49C2222.54 168.847 2235.61 181.919 2235.61 197.974V1506.6C2235.61 1522.65 2222.54 1535.72 2206.49 1535.72ZM1308.08 170.089C1292.72 170.089 1280.19 182.615 1280.19 197.974V1506.6C1280.19 1521.95 1292.72 1534.48 1308.08 1534.48H2206.49C2221.84 1534.48 2234.37 1521.95 2234.37 1506.6V197.974C2234.37 182.615 2221.84 170.089 2206.49 170.089H1308.08Z" fill="#E0E0E0"/>
<path d="M1170.49 1535.72H272.133C256.078 1535.72 243.006 1522.65 243.006 1506.6V197.974C243.006 181.919 256.078 168.847 272.133 168.847H1170.49C1186.55 168.847 1199.62 181.919 1199.62 197.974V1506.6C1199.62 1522.65 1186.55 1535.72 1170.49 1535.72ZM272.133 170.089C256.774 170.089 244.248 182.615 244.248 197.974V1506.6C244.248 1521.95 256.774 1534.48 272.133 1534.48H1170.49C1185.85 1534.48 1198.38 1521.95 1198.38 1506.6V197.974C1198.38 182.615 1185.85 170.089 1170.49 170.089H272.133Z" fill="#E0E0E0"/>
<path d="M2485.23 1839.27H0V1840.51H2485.23V1839.27Z" fill="#E0E0E0"/>
<path d="M336.649 1910.15H256.823V1911.39H336.649V1910.15Z" fill="#E0E0E0"/>
<path d="M1112.79 1896.68H846.718V1897.92H1112.79V1896.68Z" fill="#E0E0E0"/>
<path d="M521.799 1956.32H341.62V1957.57H521.799V1956.32Z" fill="#E0E0E0"/>
<path d="M2095.25 1896.03H1880.57V1897.27H2095.25V1896.03Z" fill="#E0E0E0"/>
<path d="M2171 1896.03H2139.53V1897.27H2171V1896.03Z" fill="#E0E0E0"/>
<path d="M1839.57 1927H1571.71V1928.24H1839.57V1927Z" fill="#E0E0E0"/>
<path d="M2280.84 2123.18C2280.84 2140.03 1816.01 2153.65 1242.61 2153.65C669.222 2153.65 204.385 2139.98 204.385 2123.18C204.385 2106.38 669.222 2092.71 1242.61 2092.71C1816.01 2092.71 2280.84 2106.38 2280.84 2123.18Z" fill="#F5F5F5"/>
<path d="M1079.14 1215.87C1153.84 1313.94 1218.61 1428.46 1241.72 1550.63C1244.55 1568.28 1246.54 1586.12 1246.84 1603.97C1234.56 1466.09 1155.98 1328.6 1079.14 1215.87Z" fill="#263238"/>
<path d="M603.463 647.7C624.041 689.899 619.766 748.998 634.379 793.633C663.258 881.66 680.108 879.522 731.254 956.763C765.003 1007.76 793.832 1129.49 879.522 1176.56C968.494 1225.42 1090.12 1257.33 1156.58 1334.02L1165.52 1327.46C1165.52 1327.46 1097.23 1012.73 1064.13 950.898C1031.02 889.066 964.468 812.173 887.823 787.32C811.179 762.468 775.59 786.774 723.351 745.817C671.061 704.91 653.267 685.227 632.391 666.091C611.515 646.955 603.463 647.7 603.463 647.7Z" fill="#263238"/>
<g opacity="0.2">
<path d="M603.463 647.7C624.041 689.899 619.766 748.998 634.379 793.633C663.258 881.66 680.108 879.522 731.254 956.763C765.003 1007.76 793.832 1129.49 879.522 1176.56C968.494 1225.42 1090.12 1257.33 1156.58 1334.02L1165.52 1327.46C1165.52 1327.46 1097.23 1012.73 1064.13 950.898C1031.02 889.066 964.468 812.173 887.823 787.32C811.179 762.468 775.59 786.774 723.351 745.817C671.061 704.91 653.267 685.227 632.391 666.091C611.515 646.955 603.463 647.7 603.463 647.7Z" fill="white"/>
</g>
<path d="M1156.53 1334.02C1114.13 1193.36 1019.19 1071.08 904.126 981.616C814.906 916.851 732.248 840.703 670.216 748.949C649.589 718.43 631.149 686.47 615.094 653.367C648.744 718.728 691.639 779.169 741.493 833.098C766.445 859.989 792.838 885.537 820.623 909.544C876.093 957.807 939.516 996.974 989.519 1051.55C1065.52 1131.23 1128 1227.06 1156.58 1334.07L1156.53 1334.02Z" fill="#263238"/>
<path d="M929.028 1000.25C872.564 935.887 891.949 835.534 833.595 772.21C841.449 779.119 848.109 787.32 853.974 796.018C894.334 858.1 884.741 940.112 929.028 1000.25Z" fill="#263238"/>
<path d="M1060.99 1140.67C1032.91 1110.05 994.738 1086.54 952.787 1084.16C939.019 1083.41 925.3 1086 911.333 1087.93C883.151 1093.05 853.229 1086.49 829.47 1070.54C805.413 1055.38 784.935 1035.79 765.152 1015.91C775.789 1025.11 786.277 1034.45 797.261 1043.15C829.321 1069.69 867.643 1092.06 910.687 1083.06C924.505 1081.32 938.621 1078.79 953.036 1079.73C995.831 1082.42 1034.85 1107.82 1061.04 1140.77L1060.99 1140.67Z" fill="#263238"/>
<path d="M1094.94 1187.09C1082.12 1134.01 1073.42 1079.88 1064.67 1026.05C1055.73 972.569 1038.33 919.783 1009.55 873.558C1041.91 917.944 1060.1 971.476 1069.54 1025.26L1081.97 1106.22C1085.1 1126.36 1091.61 1167.01 1094.89 1187.09H1094.94Z" fill="#263238"/>
<path d="M1182.07 2066.07C1188.64 1629.56 1346.45 1200.81 1610.03 854.322L1668.43 781.555L1729.97 711.421L1669.38 782.3L1611.97 855.763C1350.92 1203.35 1194.55 1630.71 1182.07 2066.07Z" fill="#263238"/>
<path d="M1951.8 433.672C1910.15 470.255 1841.55 483.774 1795.28 514.343C1704.02 574.634 1711.68 593.174 1639.65 675.435C1592.09 729.762 1462.46 800.492 1435.52 912.725C1407.58 1029.23 1395.75 1178.84 1352.76 1285.46C1352.76 1285.46 1689.91 1109.65 1750 1052.69C1810.04 995.732 1876.94 895.975 1881.37 800.989C1885.79 705.954 1847.07 673 1877.39 600.729C1907.71 528.459 1924.56 502.066 1939.87 472.293C1955.18 442.52 1951.8 433.623 1951.8 433.623V433.672Z" fill="#263238"/>
<g opacity="0.1">
<path d="M1951.8 433.672C1910.15 470.255 1841.55 483.774 1795.28 514.343C1704.02 574.634 1711.68 593.174 1639.65 675.435C1592.09 729.762 1462.46 800.492 1435.52 912.725C1407.58 1029.23 1395.75 1178.84 1352.76 1285.46C1352.76 1285.46 1689.91 1109.65 1750 1052.69C1810.04 995.732 1876.94 895.975 1881.37 800.989C1885.79 705.954 1847.07 673 1877.39 600.729C1907.71 528.459 1924.56 502.066 1939.87 472.293C1955.18 442.52 1951.8 433.623 1951.8 433.623V433.672Z" fill="white"/>
</g>
<path d="M1356.69 1275.57C1463.15 1139.78 1558.14 995.036 1639.51 842.89C1670.27 785.978 1699.95 728.172 1734.99 673.646C1793.34 581.941 1883.16 516.679 1951.85 433.672C1924.66 467.223 1894.44 498.139 1864.32 529.006C1819.44 575.38 1772.07 620.214 1738.47 675.783C1703.87 730.508 1674.35 788.066 1643.88 845.127C1562.36 997.422 1466.38 1142.01 1356.74 1275.52L1356.69 1275.57Z" fill="#263238"/>
<path d="M1525.83 1040.12C1592.73 952.439 1713.91 955.023 1811.19 927.636C1825.55 923.759 1839.62 918.938 1853.43 913.321C1840.06 919.982 1826.05 925.25 1811.88 929.972C1715.26 960.988 1597.06 957.36 1525.83 1040.12Z" fill="#263238"/>
<path d="M1608.04 909.792C1617.44 870.377 1626.73 830.663 1627.73 790.054C1629.02 754.963 1623.1 717.635 1637.91 684.183C1639.95 679.511 1642.04 674.839 1644.18 670.266C1636.77 689.253 1632 709.135 1631.6 729.216C1631.35 749.296 1633.44 769.725 1632.7 790.203C1631.2 831.16 1621.31 871.172 1608.04 909.792Z" fill="#263238"/>
<path d="M1699.8 739.853C1713.17 706.451 1747.36 686.569 1779.77 674.839C1804.52 666.19 1829.28 657.79 1850.15 641.686C1857.11 636.467 1863.42 630.453 1869.54 624.19C1864.17 631.099 1858.16 637.56 1851.55 643.426C1831.51 660.922 1806.07 670.813 1781.46 679.461C1749.45 691.639 1716.99 708.887 1699.8 739.902V739.853Z" fill="#263238"/>
<path d="M1448.19 1153.69C1473.49 1067.11 1422.64 978.981 1442.92 891.899C1444.61 886.232 1446.35 880.616 1448.14 875.049C1421.95 967.052 1481.89 1062.63 1448.14 1153.69H1448.19Z" fill="#263238"/>
<path d="M1288.44 1454.5C1309.52 1247.44 1292.32 1036.49 1238.14 835.484L1226.86 795.373L1239.38 835.136C1298.48 1035 1315.98 1247.88 1288.44 1454.5Z" fill="#263238"/>
<path d="M1109.8 0C1106.22 51.3448 1069.79 105.125 1059.25 155.526C1038.43 254.935 1055.63 262.142 1061.89 363.539C1066.01 430.442 1026.7 561.861 1082.32 653.466C1140.02 748.601 1238.09 845.525 1259.17 954.726L1271.29 953.433C1271.29 953.433 1378.8 617.132 1381.24 540.289C1383.63 463.445 1362.6 353.946 1303.4 288.386C1244.25 222.826 1197.13 226.404 1169.95 158.906C1142.71 91.4067 1136.59 62.9757 1127.25 33.3518C1117.91 3.72785 1109.85 0.0497057 1109.85 0.0497057L1109.8 0Z" fill="#263238"/>
<g opacity="0.2">
<path d="M1109.8 0C1106.22 51.3448 1069.79 105.125 1059.25 155.526C1038.43 254.935 1055.63 262.142 1061.89 363.539C1066.01 430.442 1026.7 561.861 1082.32 653.466C1140.02 748.601 1238.09 845.525 1259.17 954.726L1271.29 953.433C1271.29 953.433 1378.8 617.132 1381.24 540.289C1383.63 463.445 1362.6 353.946 1303.4 288.386C1244.25 222.826 1197.13 226.404 1169.95 158.906C1142.71 91.4067 1136.59 62.9757 1127.25 33.3518C1117.91 3.72785 1109.85 0.0497057 1109.85 0.0497057L1109.8 0Z" fill="white"/>
</g>
<path d="M1263.84 954.229C1300.77 797.112 1273.13 629.459 1212.69 481.737C1163.39 371.393 1126.6 253.841 1117.86 132.711C1114.92 92.4507 1114.92 51.9912 1117.71 11.7305C1113.78 92.2519 1121.34 173.121 1139.13 251.654C1156.63 330.337 1184.51 406.236 1217.22 479.798C1277.66 628.266 1304.5 797.212 1263.84 954.229Z" fill="#263238"/>
<path d="M1225.91 513.15C1207.87 421.097 1281.28 336.4 1260.16 244.298C1263.79 255.183 1265.63 266.615 1266.37 278.097C1270.55 359.115 1216.47 431.784 1225.91 513.15Z" fill="#263238"/>
<path d="M1274.33 718.778C1264.53 674.292 1241.17 630.9 1202.65 605.65C1189.98 597.399 1175.51 592.279 1161.2 586.464C1131.52 575.827 1107.02 553.46 1093.05 525.228C1078.49 497.692 1069.74 467.869 1061.69 438.195C1066.71 452.759 1071.53 467.372 1077.2 481.687C1093.5 525.129 1116.61 566.284 1163.09 581.891C1184.36 590.291 1206.88 599.735 1223.48 616.486C1251.51 643.425 1268.61 680.704 1274.38 718.827L1274.33 718.778Z" fill="#263238"/>
<path d="M1281.14 781.406C1298.23 723.997 1319.61 667.88 1340.83 611.963C1361.61 556.244 1373.98 496.499 1371.8 436.854C1378.01 496.698 1365.98 557.486 1345.5 613.702L1313.05 697.455C1305.04 718.281 1289.04 760.48 1281.19 781.406H1281.14Z" fill="#263238"/>
<path d="M1243.91 1612.42C1336.66 1497.15 1468.47 1413.8 1611.67 1377.21L1640.5 1370.65L1612.02 1378.46C1470.56 1419.86 1341.38 1501.77 1243.91 1612.42Z" fill="#263238"/>
<path d="M2065.23 1285.51C2038.73 1298.33 2017.96 1329.05 1993.45 1345.4C1945.14 1377.56 1937.63 1370.01 1882.56 1388.25C1846.18 1400.28 1784.84 1449.09 1724.4 1439.05C1661.67 1428.66 1589.4 1397.25 1526.97 1409.27L1525.09 1402.56C1525.09 1402.56 1680.61 1274.03 1720.87 1256.43C1761.13 1238.84 1823.71 1226.71 1871.03 1244.16C1918.4 1261.6 1926.5 1287.35 1968.1 1287.45C2009.71 1287.55 2026.11 1284.76 2043.8 1283.42C2061.5 1282.08 2065.18 1285.56 2065.18 1285.56L2065.23 1285.51Z" fill="#263238"/>
<g opacity="0.2">
<path d="M2065.23 1285.51C2038.73 1298.33 2017.96 1329.05 1993.45 1345.4C1945.14 1377.56 1937.63 1370.01 1882.56 1388.25C1846.18 1400.28 1784.84 1449.09 1724.4 1439.05C1661.67 1428.66 1589.4 1397.25 1526.97 1409.27L1525.09 1402.56C1525.09 1402.56 1680.61 1274.03 1720.87 1256.43C1761.13 1238.84 1823.71 1226.71 1871.03 1244.16C1918.4 1261.6 1926.5 1287.35 1968.1 1287.45C2009.71 1287.55 2026.11 1284.76 2043.8 1283.42C2061.5 1282.08 2065.18 1285.56 2065.18 1285.56L2065.23 1285.51Z" fill="white"/>
</g>
<path d="M1527.02 1409.22C1601.08 1353.51 1696.02 1329.35 1787.92 1329.55C1811.04 1330.04 1833.9 1330.59 1856.86 1329.45C1925.75 1326.47 1994.15 1312.1 2057.32 1283.77C2036.74 1294.11 2015.22 1302.71 1993.3 1309.91C1927.25 1331.44 1856.86 1336.9 1787.82 1334.42C1696.62 1333.77 1602.72 1357.03 1527.02 1409.17V1409.22Z" fill="#263238"/>
<path d="M1768.34 1332.98C1813.02 1319.41 1839.86 1275.37 1884.25 1261.05C1890.61 1259.17 1897.12 1257.77 1903.69 1257.62C1850.85 1267.47 1821.57 1324.33 1768.34 1332.98Z" fill="#263238"/>
<path d="M1648.95 1351.02C1684.54 1341.43 1722.51 1351.07 1746.02 1380.2C1763.47 1400.92 1790.96 1405.1 1816.65 1404.65C1825.4 1404.8 1834.2 1404.35 1843.05 1404.15C1825.65 1406.64 1807.95 1408.53 1790.11 1406.84C1772.07 1405.74 1754.37 1397.2 1742.49 1383.63C1736.33 1377.26 1730.56 1370.75 1723.66 1365.83C1702.28 1350.67 1674.75 1347.39 1649 1350.97L1648.95 1351.02Z" fill="#263238"/>
<path d="M1614.26 1360.71C1632.8 1343.07 1670.17 1307.68 1688.81 1290.13C1714.26 1267.22 1744.38 1248.08 1777.73 1239.38C1712.32 1263.34 1669.13 1320.75 1614.21 1360.71H1614.26Z" fill="#263238"/>
<path d="M1225.37 1679.96C1127.9 1569.32 998.714 1487.46 857.255 1446.01L828.774 1438.2L857.603 1444.76C1000.85 1481.35 1132.62 1564.7 1225.37 1679.96Z" fill="#263238"/>
<path d="M404.098 1353.01C430.591 1365.83 451.367 1396.55 475.872 1412.9C524.184 1445.06 531.69 1437.51 586.763 1455.75C623.146 1467.78 684.482 1516.59 744.922 1506.55C807.65 1496.16 879.92 1464.74 942.349 1476.77L944.238 1470.06C944.238 1470.06 788.712 1341.53 748.452 1323.93C708.191 1306.34 645.613 1294.21 598.294 1311.65C550.926 1329.1 542.824 1354.85 501.221 1354.95C459.618 1355.05 443.216 1352.26 425.521 1350.92C407.826 1349.58 404.148 1353.06 404.148 1353.06L404.098 1353.01Z" fill="#263238"/>
<g opacity="0.1">
<path d="M404.098 1353.01C430.591 1365.83 451.367 1396.55 475.872 1412.9C524.184 1445.06 531.69 1437.51 586.763 1455.75C623.146 1467.78 684.482 1516.59 744.922 1506.55C807.65 1496.16 879.92 1464.74 942.349 1476.77L944.238 1470.06C944.238 1470.06 788.712 1341.53 748.452 1323.93C708.191 1306.34 645.613 1294.21 598.294 1311.65C550.926 1329.1 542.824 1354.85 501.221 1354.95C459.618 1355.05 443.216 1352.26 425.521 1350.92C407.826 1349.58 404.148 1353.06 404.148 1353.06L404.098 1353.01Z" fill="white"/>
</g>
<path d="M942.299 1476.77C866.599 1424.63 772.707 1401.37 681.499 1402.02C612.46 1404.5 542.078 1399.03 476.021 1377.51C454.051 1370.31 432.579 1361.71 412.001 1351.37C475.176 1379.7 543.569 1394.06 612.46 1397.05C635.423 1398.19 658.337 1397.64 681.4 1397.15C773.304 1396.95 868.24 1421.1 942.299 1476.82V1476.77Z" fill="#263238"/>
<path d="M700.984 1400.53C647.75 1391.88 618.474 1335.06 565.638 1325.17C572.199 1325.32 578.71 1326.71 585.073 1328.6C629.459 1342.92 656.299 1386.96 700.984 1400.53Z" fill="#263238"/>
<path d="M820.324 1418.52C794.627 1414.89 767.041 1418.22 745.668 1433.38C738.759 1438.3 732.993 1444.81 726.83 1451.17C714.951 1464.69 697.206 1473.24 679.213 1474.39C661.369 1476.08 643.724 1474.19 626.278 1471.7C635.075 1471.9 643.873 1472.35 652.671 1472.2C678.368 1472.6 705.855 1468.47 723.301 1447.75C746.762 1418.67 784.786 1408.98 820.374 1418.57L820.324 1418.52Z" fill="#263238"/>
<path d="M855.018 1428.26C800.095 1388.3 756.951 1330.89 691.49 1306.93C724.842 1315.63 754.963 1334.77 780.411 1357.68C799.051 1375.18 836.478 1410.62 854.968 1428.26H855.018Z" fill="#263238"/>
<path d="M2073.09 1634.87C2136.45 1617.86 2176.75 1562.82 2163.08 1511.94C2149.42 1461.07 2086.98 1433.62 2023.62 1450.63C1960.26 1467.64 1919.96 1522.68 1933.62 1573.56C1947.29 1624.43 2009.73 1651.88 2073.09 1634.87Z" fill="#CE7700"/>
<path opacity="0.7" d="M2073.09 1634.87C2136.45 1617.86 2176.75 1562.82 2163.08 1511.94C2149.42 1461.07 2086.98 1433.62 2023.62 1450.63C1960.26 1467.64 1919.96 1522.68 1933.62 1573.56C1947.29 1624.43 2009.73 1651.88 2073.09 1634.87Z" fill="white"/>
<path opacity="0.1" d="M2106.18 1474.19C2111.05 1492.33 2089.13 1513.95 2057.17 1522.55C2025.21 1531.15 1995.39 1523.4 1990.52 1505.25C1985.65 1487.11 2007.57 1465.49 2039.53 1456.89C2071.49 1448.29 2101.31 1456.05 2106.18 1474.19Z" fill="white"/>
<path opacity="0.1" d="M2091.67 1474.59C2093.81 1482.54 2084.16 1492.03 2070.2 1495.76C2056.23 1499.49 2043.11 1496.11 2040.97 1488.2C2038.83 1480.25 2048.47 1470.76 2062.44 1467.03C2076.46 1463.25 2089.53 1466.68 2091.67 1474.59Z" fill="white"/>
<g opacity="0.3">
<path d="M2094.6 1607.69C2070.84 1625.59 2038.19 1631.01 2009.9 1621.81C1981.62 1612.61 1958.46 1589.01 1949.71 1560.57C1949.71 1560.57 1971.23 1598.95 2015.97 1609.73C2059.46 1620.22 2094.6 1607.74 2094.6 1607.74V1607.69Z" fill="white"/>
</g>
<path d="M2134.56 1503.61C2135.96 1517.73 2140.03 1528.91 2148.03 1540.64C2135.01 1534.63 2128.45 1516.59 2134.56 1503.61Z" fill="#263238"/>
<path d="M1009.04 724.053C1044.21 684.831 1033.12 617.53 984.267 573.732C935.419 529.934 867.311 526.224 832.145 565.445C796.978 604.667 808.069 671.968 856.917 715.766C905.765 759.564 973.873 763.274 1009.04 724.053Z" fill="#CE7700"/>
<path opacity="0.7" d="M1009.04 724.053C1044.21 684.831 1033.12 617.53 984.267 573.732C935.419 529.934 867.311 526.224 832.145 565.445C796.978 604.667 808.069 671.968 856.917 715.766C905.765 759.564 973.873 763.274 1009.04 724.053Z" fill="white"/>
<path opacity="0.1" d="M831.756 633.634C844.282 619.667 874.403 626.228 899.057 648.297C923.66 670.365 933.502 699.592 920.926 713.559C908.401 727.526 878.28 720.965 853.627 698.896C829.023 676.827 819.181 647.601 831.756 633.634Z" fill="white"/>
<path opacity="0.1" d="M840.057 645.563C845.525 639.449 858.746 642.332 869.532 651.975C880.318 661.667 884.592 674.441 879.125 680.605C873.657 686.718 860.436 683.835 849.65 674.193C838.864 664.5 834.59 651.726 840.057 645.563Z" fill="white"/>
<g opacity="0.3">
<path d="M949.954 570.459C977.888 580.649 1000.26 605.004 1008.01 633.733C1015.71 662.463 1008.61 694.771 989.569 717.585C989.569 717.585 1010 678.617 994.589 635.274C979.628 593.125 950.004 570.509 950.004 570.509L949.954 570.459Z" fill="white"/>
</g>
<path d="M840.952 593.82C851.986 584.973 859.193 575.38 864.611 562.308C866.699 576.523 855.167 591.832 840.952 593.82Z" fill="#263238"/>
<path d="M1517.78 585.718C1551.63 597.2 1567.48 640.741 1553.12 682.941C1538.8 725.14 1499.74 749.992 1465.89 738.461C1432.04 726.929 1416.18 683.438 1430.55 641.238C1444.86 599.039 1483.93 574.187 1517.78 585.718Z" fill="#CE7700"/>
<path opacity="0.7" d="M1517.78 585.718C1551.63 597.2 1567.48 640.741 1553.12 682.941C1538.8 725.14 1499.74 749.992 1465.89 738.461C1432.04 726.929 1416.18 683.438 1430.55 641.238C1444.86 599.039 1483.93 574.187 1517.78 585.718Z" fill="white"/>
<path opacity="0.1" d="M1475.08 603.662C1487.16 607.738 1491.09 628.315 1483.83 649.589C1476.62 670.862 1460.97 684.78 1448.89 680.654C1436.81 676.529 1432.88 656.001 1440.14 634.727C1447.35 613.454 1463 599.536 1475.08 603.662Z" fill="white"/>
<path opacity="0.1" d="M1469.86 612.012C1475.13 613.801 1476.87 622.798 1473.69 632.142C1470.51 641.437 1463.65 647.551 1458.38 645.761C1453.11 643.972 1451.37 634.976 1454.55 625.631C1457.74 616.287 1464.6 610.223 1469.86 612.012Z" fill="white"/>
<g opacity="0.3">
<path d="M1546.06 660.623C1547.15 680.803 1537.91 701.232 1522 713.708C1506.1 726.183 1484.08 730.359 1464.74 724.543C1464.74 724.543 1494.52 726.879 1517.48 705.705C1539.8 685.127 1546.06 660.623 1546.06 660.623Z" fill="white"/>
</g>
<path d="M1502.42 598.791C1511.71 602.419 1518.47 604.059 1528.37 605.153C1520.36 611.415 1506.6 607.986 1502.42 598.791Z" fill="#263238"/>
<path d="M695.378 1859.36C768.85 1856.16 826.323 1805.76 823.749 1746.79C821.174 1687.83 759.527 1642.63 686.055 1645.84C612.584 1649.04 555.111 1699.44 557.685 1758.41C560.259 1817.37 621.907 1862.57 695.378 1859.36Z" fill="#CE7700"/>
<path opacity="0.7" d="M695.378 1859.36C768.85 1856.16 826.323 1805.76 823.749 1746.79C821.174 1687.83 759.527 1642.63 686.055 1645.84C612.584 1649.04 555.111 1699.44 557.685 1758.41C560.259 1817.37 621.907 1862.57 695.378 1859.36Z" fill="white"/>
<path opacity="0.1" d="M674.623 1734.16C711.646 1732.54 740.916 1714.2 739.999 1693.19C739.082 1672.18 708.325 1656.46 671.301 1658.08C634.277 1659.7 605.007 1678.04 605.924 1699.05C606.842 1720.05 637.599 1735.77 674.623 1734.16Z" fill="white"/>
<path opacity="0.1" d="M621.456 1694.68C621.854 1703.87 635.324 1710.78 651.577 1710.09C667.781 1709.39 680.605 1701.34 680.207 1692.14C679.81 1682.95 666.34 1676.04 650.086 1676.73C633.883 1677.43 621.059 1685.48 621.456 1694.68Z" fill="white"/>
<g opacity="0.3">
<path d="M663.258 1837.88C694.721 1848.96 731.403 1843.74 758.542 1824.36C785.68 1804.97 802.48 1771.92 802.182 1738.62C802.182 1738.62 792.142 1786.88 747.954 1813.47C705.01 1839.32 663.258 1837.88 663.258 1837.88Z" fill="white"/>
</g>
<path d="M585.47 1740.11C595.958 1752.14 595.063 1773.16 583.581 1784.2C588.552 1769.23 589.198 1755.42 585.47 1740.11Z" fill="#263238"/>
<path d="M648.214 1162.51C666.947 1135.45 654.795 1094.59 621.073 1071.25C587.352 1047.91 544.829 1050.92 526.097 1077.99C507.364 1105.05 519.515 1145.91 553.237 1169.25C586.959 1192.59 629.482 1189.58 648.214 1162.51Z" fill="#CE7700"/>
<path opacity="0.7" d="M648.214 1162.51C666.947 1135.45 654.795 1094.59 621.073 1071.25C587.352 1047.91 544.829 1050.92 526.097 1077.99C507.364 1105.05 519.515 1145.91 553.237 1169.25C586.959 1192.59 629.482 1189.58 648.214 1162.51Z" fill="white"/>
<path opacity="0.1" d="M531.243 1120.24C537.903 1110.6 557.139 1112.29 574.138 1124.07C591.137 1135.85 599.487 1153.2 592.826 1162.84C586.166 1172.48 566.93 1170.79 549.931 1159.01C532.932 1147.23 524.582 1129.88 531.243 1120.24Z" fill="white"/>
<path opacity="0.1" d="M537.306 1126.95C540.239 1122.73 548.639 1123.47 556.095 1128.64C563.55 1133.81 567.229 1141.42 564.296 1145.64C561.363 1149.87 552.963 1149.12 545.508 1143.95C538.052 1138.78 534.374 1131.18 537.306 1126.95Z" fill="white"/>
<g opacity="0.3">
<path d="M599.586 1071.78C617.728 1075.91 633.485 1089.28 640.543 1106.47C647.601 1123.67 645.712 1144.3 635.672 1159.91C635.672 1159.91 645.265 1134.11 632.342 1108.46C619.766 1083.46 599.636 1071.78 599.636 1071.78H599.586Z" fill="white"/>
</g>
<path d="M533.777 1094.79C539.195 1087.24 542.227 1081.92 546.005 1073.42C549.832 1082.07 543.172 1093.7 533.777 1094.79Z" fill="#263238"/>
<path d="M1576.63 1027.1C1577.47 1028.93 1656.85 1206.38 1478.11 1324.43C1280.14 1455.2 1171.29 1292.27 1171.29 1292.27L1576.63 1027.05V1027.1Z" fill="#CE7700"/>
<path opacity="0.3" d="M1576.63 1027.1C1577.47 1028.93 1656.85 1206.38 1478.11 1324.43C1280.14 1455.2 1171.29 1292.27 1171.29 1292.27L1576.63 1027.05V1027.1Z" fill="black"/>
<path d="M1549.44 992.75C1549.44 992.75 1637.57 1043.7 1526.03 1186.65C1414.49 1329.6 1286.7 1353.6 1219.6 1325.42C1152.5 1297.24 1169 1264.14 1169 1264.14C1169 1264.14 1149.57 1257.82 1150.56 1207.13C1151.56 1156.43 1186 1048.52 1319.46 976.347C1437.66 912.477 1534.03 931.862 1549.44 992.7V992.75Z" fill="#CE7700"/>
<path opacity="0.3" d="M1549.44 991.209C1519.02 1055.43 1460.02 1104.83 1389.99 1115.12C1369.76 1118.1 1349.03 1118.55 1328.45 1122.38C1307.18 1126.21 1286.35 1134.86 1268.46 1146.98C1250.77 1158.71 1235.06 1174.27 1222.04 1190.77C1202.6 1215.13 1184.66 1240.58 1168.06 1266.92C1189.53 1244.45 1209.86 1221.29 1231.43 1199.07C1251.51 1177.45 1276.21 1158.61 1303.7 1148.33C1341.28 1133.71 1385.76 1140.17 1424.23 1125.66C1484.08 1104.88 1534.03 1052.15 1549.49 991.159L1549.44 991.209Z" fill="black"/>
<g opacity="0.3">
<path d="M1220.89 1274.48L1220.79 1274.38C1215.48 1269.8 1215.87 1260.16 1221.24 1252.9C1238.94 1229 1263.99 1205.24 1287.35 1192.26C1294.01 1188.59 1301.12 1185.31 1307.83 1186.55C1310.31 1187 1312.55 1188.24 1314.09 1190.23C1319.16 1196.69 1315.28 1206.63 1311.01 1214.83C1302.66 1231.08 1292.22 1246.74 1279.05 1258.87C1265.83 1270.95 1249.57 1279.15 1234.61 1278.85C1229.54 1278.75 1224.57 1277.61 1220.89 1274.48Z" fill="white"/>
</g>
<path opacity="0.3" d="M1170.54 1231.38C1169.2 1163.39 1200.66 1096.48 1252.51 1052.74C1259.91 1046.58 1267.57 1040.76 1275.52 1035.35C1271.89 1038.53 1268.26 1041.66 1264.58 1044.74C1210.21 1091.81 1175.51 1159.51 1170.49 1231.43L1170.54 1231.38Z" fill="white"/>
<path opacity="0.3" d="M1302.46 1017.85C1311.31 1008.46 1321.99 1001.9 1334.42 998.366C1325.57 1007.76 1314.88 1014.27 1302.46 1017.85Z" fill="white"/>
<path opacity="0.3" d="M1369.86 1154.04C1421.95 1154.79 1473.54 1133.76 1510.27 1096.93C1514.9 1092.31 1521.11 1085.25 1525.23 1080.28C1523.2 1083.41 1521.16 1086.54 1519.02 1089.67L1512.06 1098.57L1504.36 1106.87C1469.86 1141.81 1418.72 1160.55 1369.81 1153.99L1369.86 1154.04Z" fill="white"/>
<path d="M1200.02 1409.62C1200.12 1411.31 1209.31 1572.55 1035.45 1614.21C842.89 1660.33 806.457 1502.12 806.457 1502.12L1200.02 1409.62Z" fill="#CE7700"/>
<path opacity="0.3" d="M1200.02 1409.62C1200.12 1411.31 1209.31 1572.55 1035.45 1614.21C842.89 1660.33 806.457 1502.12 806.457 1502.12L1200.02 1409.62Z" fill="black"/>
<path d="M1186.65 1378.66C1186.65 1378.66 1240.43 1443.72 1112.44 1522.6C984.449 1601.48 878.23 1583.24 834.242 1541.98C790.253 1500.73 812.62 1479.75 812.62 1479.75C812.62 1479.75 799.349 1469.27 814.757 1430.15C830.166 1391.03 888.072 1317.12 1012.68 1299.58C1122.98 1284.07 1192.31 1326.96 1186.65 1378.71V1378.66Z" fill="#CE7700"/>
<path opacity="0.3" d="M1189.78 1377.51C1147.38 1418.87 1086.84 1440.24 1028.98 1427.81C1012.28 1424.23 995.881 1418.52 978.683 1415.49C960.889 1412.26 942.101 1412.9 924.555 1417.18C907.258 1421.15 890.507 1428.76 875.496 1437.85C853.229 1451.22 831.806 1465.89 811.129 1481.64C834.44 1470.36 857.106 1458.18 880.417 1447.1C902.436 1436.06 927.189 1428.56 951.743 1428.56C985.393 1428.11 1018.4 1446.2 1052.74 1446.11C1105.68 1447.35 1160.06 1420.71 1189.83 1377.51H1189.78Z" fill="black"/>
<g opacity="0.3">
<path d="M882.753 1378.36C884.692 1373.88 888.817 1371.3 892.843 1368.86C935.838 1343.02 981.815 1320.25 1030.87 1313.29C1070.34 1307.68 1112.24 1313.59 1144.85 1333.87C1165.62 1346.8 1166.47 1377.61 1145.44 1391.88C1144.75 1392.32 1144.05 1392.77 1143.35 1393.22C1115.37 1409.92 1080.38 1403.96 1050.41 1393.92C1020.43 1383.87 990.413 1370.11 958.404 1372.79C936.931 1374.58 916.552 1383.78 895.378 1388.35C891.004 1389.29 885.785 1389.84 883.201 1386.01C881.66 1383.82 881.71 1380.89 882.803 1378.36H882.753Z" fill="white"/>
</g>
<g opacity="0.3">
<path d="M851.936 1399.83L853.179 1399.08C858.945 1396.3 866.898 1401.37 866.748 1407.78C866.599 1414.19 858.498 1418.97 852.831 1415.88C847.165 1412.85 846.668 1403.46 851.936 1399.78V1399.83Z" fill="white"/>
</g>
<g opacity="0.3">
<path d="M833.397 1514.25L833.248 1514.1C827.233 1506.4 828.874 1495.26 836.429 1489.1C861.38 1468.72 895.478 1451.67 926.145 1446.6C934.893 1445.16 944.089 1444.37 952.29 1448.79C955.322 1450.43 957.956 1452.81 959.646 1455.8C965.164 1465.54 959.05 1475.53 952.787 1483.33C940.361 1498.79 925.499 1512.66 907.606 1521.16C889.712 1529.61 868.488 1532.24 849.899 1525.38C843.636 1523.05 837.572 1519.57 833.397 1514.35V1514.25Z" fill="white"/>
</g>
<path opacity="0.3" d="M1030.82 1538.51C1086.84 1521.36 1137.04 1486.71 1172.53 1440.09C1177 1434.28 1183.02 1425.58 1187 1419.51C1185.06 1423.24 1183.12 1426.97 1181.08 1430.7C1149.32 1485.57 1093.2 1526.58 1030.77 1538.51H1030.82Z" fill="white"/>
<path d="M1396.45 1768.29C1396.45 1769.98 1399.18 1929.63 1225.67 1963.93C1033.56 2001.85 1003.83 1844.09 1003.83 1844.09L1396.45 1768.34V1768.29Z" fill="#CE7700"/>
<path opacity="0.3" d="M1396.45 1768.29C1396.45 1769.98 1399.18 1929.63 1225.67 1963.93C1033.56 2001.85 1003.83 1844.09 1003.83 1844.09L1396.45 1768.34V1768.29Z" fill="black"/>
<path d="M1384.47 1737.18C1384.47 1737.18 1435.02 1803.58 1305.44 1876.45C1175.86 1949.31 1071.58 1927.05 1029.73 1884.5C987.878 1841.95 1010.84 1822.17 1010.84 1822.17C1010.84 1822.17 998.167 1811.28 1014.92 1773.21C1031.72 1735.14 1091.86 1664.41 1215.67 1652.08C1325.32 1641.15 1392.08 1686.28 1384.47 1737.18Z" fill="#CE7700"/>
<path opacity="0.3" d="M1387.55 1736.18C1344.01 1775.35 1283.32 1794.09 1226.66 1779.52C1210.31 1775.3 1194.3 1769.04 1177.4 1765.31C1159.96 1761.38 1141.32 1761.33 1123.82 1764.81C1106.57 1768.04 1089.72 1774.9 1074.51 1783.3C1051.95 1795.63 1030.18 1809.25 1009.2 1824.01C1032.71 1813.77 1055.58 1802.64 1079.04 1792.65C1101.2 1782.61 1126.01 1776.19 1150.21 1777.14C1183.52 1778.03 1215.38 1797.22 1249.32 1798.46C1301.56 1801.79 1356.39 1777.63 1387.5 1736.13L1387.55 1736.18Z" fill="black"/>
<g opacity="0.3">
<path d="M1084.16 1724.75C1086.24 1720.42 1090.47 1717.99 1094.49 1715.8C1137.99 1691.99 1184.36 1671.32 1233.12 1666.35C1272.34 1662.37 1313.49 1669.88 1344.91 1691.2C1364.94 1704.77 1364.54 1735.24 1343.17 1748.56C1342.47 1749 1341.77 1749.4 1341.03 1749.8C1312.7 1765.16 1278.35 1757.9 1249.18 1746.77C1219.95 1735.63 1190.82 1720.87 1159.11 1722.26C1137.84 1723.21 1117.31 1731.46 1096.18 1735.14C1091.86 1735.88 1086.64 1736.23 1084.21 1732.35C1082.81 1730.12 1082.91 1727.23 1084.11 1724.75H1084.16Z" fill="white"/>
</g>
<g opacity="0.3">
<path d="M1052.84 1744.78L1054.08 1744.13C1059.9 1741.6 1067.55 1746.92 1067.16 1753.28C1066.76 1759.64 1058.56 1763.97 1053.09 1760.73C1047.62 1757.5 1047.47 1748.21 1052.84 1744.78Z" fill="white"/>
</g>
<g opacity="0.3">
<path d="M1029.93 1857.11L1029.83 1856.96C1024.16 1849.11 1026.25 1838.17 1034 1832.36C1059.45 1813.22 1093.85 1797.72 1124.37 1793.89C1133.07 1792.79 1142.21 1792.4 1150.11 1797.07C1153.05 1798.81 1155.53 1801.24 1157.12 1804.28C1162.19 1814.12 1155.78 1823.76 1149.27 1831.22C1136.4 1845.98 1121.14 1859.1 1103.09 1866.76C1085.05 1874.41 1063.98 1876.15 1045.88 1868.59C1039.77 1866.06 1033.95 1862.38 1030.03 1857.01L1029.93 1857.11Z" fill="white"/>
</g>
<path opacity="0.3" d="M1224.12 1888.92C1280.14 1874.21 1331.14 1841.9 1368.07 1797.32C1372.74 1791.75 1379 1783.4 1383.23 1777.54C1381.19 1781.16 1379.1 1784.79 1376.97 1788.37C1343.46 1841.36 1286.3 1879.68 1224.12 1888.92Z" fill="white"/>
<path d="M1019.74 1162.89C1018.99 1163.68 947.518 1240.53 849.749 1177.65C741.543 1108.06 799.349 1019.84 799.349 1019.84L1019.69 1162.84L1019.74 1162.89Z" fill="#CE7700"/>
<path opacity="0.3" d="M1019.74 1162.89C1018.99 1163.68 947.518 1240.53 849.749 1177.65C741.543 1108.06 799.349 1019.84 799.349 1019.84L1019.69 1162.84L1019.74 1162.89Z" fill="black"/>
<path d="M1028.24 1142.71C1028.24 1142.71 1021.93 1197.18 927.388 1172.63C832.85 1148.08 793.633 1090.02 793.235 1050.85C792.788 1011.64 812.72 1012.73 812.72 1012.73C812.72 1012.73 811.676 1001.8 836.975 991.408C862.275 981.019 922.964 974.955 987.183 1025.55C1044.04 1070.34 1055.08 1122.13 1028.29 1142.76L1028.24 1142.71Z" fill="#CE7700"/>
<path opacity="0.3" d="M1030.18 1143.65C991.706 1142.36 954.477 1123.57 934.297 1090.87C928.481 1081.42 923.76 1071.13 917.447 1061.69C910.985 1051.9 902.188 1043.35 892.297 1037.04C882.654 1030.72 871.57 1026.25 860.535 1023.32C844.232 1018.89 827.73 1015.41 811.079 1012.83C826.836 1018.7 842.741 1023.81 858.448 1029.83C873.508 1035.2 888.171 1043.45 899.205 1054.93C914.564 1070.54 920.926 1094.15 936.384 1110.2C959.597 1135.6 996.577 1149.12 1030.18 1143.65Z" fill="black"/>
<g opacity="0.3">
<path d="M891.75 1000.01C894.682 998.913 897.814 999.708 900.746 1000.5C932.16 1009.05 963.573 1020.39 988.873 1040.27C1009.25 1056.22 1025.31 1078.59 1030.48 1102.94C1033.76 1118.5 1019.69 1132.77 1003.54 1129.29C1002.99 1129.19 1002.49 1129.04 1001.94 1128.89C981.566 1123.27 968.593 1104.19 959.845 1085.6C951.097 1067.01 944.039 1046.73 928.382 1032.96C917.894 1023.72 904.424 1018.25 892.744 1010.39C890.358 1008.75 887.724 1006.57 888.32 1003.63C888.668 1001.94 890.06 1000.6 891.75 1000.01Z" fill="white"/>
</g>
<g opacity="0.3">
<path d="M867.842 995.185L868.737 995.434C872.663 996.875 873.856 1002.89 870.774 1005.72C867.693 1008.56 861.828 1006.87 860.684 1002.84C859.591 998.814 863.716 994.34 867.842 995.185Z" fill="white"/>
</g>
<g opacity="0.3">
<path d="M805.811 1037.93V1037.78C806.705 1031.52 812.72 1027.29 818.982 1028.04C839.759 1030.57 863.07 1038.93 879.274 1051C883.897 1054.43 888.42 1058.41 890.01 1064.22C890.607 1066.36 890.656 1068.7 890.01 1070.84C887.923 1077.79 880.517 1079.43 874.005 1079.98C861.182 1081.12 847.96 1080.38 835.932 1075.76C823.903 1071.18 813.117 1062.39 807.998 1050.56C806.258 1046.58 805.164 1042.16 805.761 1037.83L805.811 1037.93Z" fill="white"/>
</g>
<path opacity="0.3" d="M883.25 1141.47C916.9 1159.01 955.272 1166.91 993.048 1163.29C997.819 1162.89 1004.58 1161.94 1009.3 1161.25C1006.72 1162.14 1004.08 1162.94 1001.45 1163.73C961.535 1174.47 916.353 1166.47 883.25 1141.47Z" fill="white"/>
<path d="M1735.63 1233.62C1736.33 1234.26 1804.03 1295.8 1884.4 1234.11C1973.37 1165.77 1916.71 1093.35 1916.71 1093.35L1735.63 1233.62Z" fill="#CE7700"/>
<path opacity="0.3" d="M1735.63 1233.62C1736.33 1234.26 1804.03 1295.8 1884.4 1234.11C1973.37 1165.77 1916.71 1093.35 1916.71 1093.35L1735.63 1233.62Z" fill="black"/>
<path d="M1726.79 1216.67C1726.79 1216.67 1736.23 1263.54 1816.6 1235.31C1896.98 1207.08 1926.8 1153.84 1924.31 1119.74C1921.83 1085.65 1904.63 1088.03 1904.63 1088.03C1904.63 1088.03 1904.73 1078.44 1882.01 1071.28C1859.3 1064.13 1806.12 1063.28 1753.98 1111.84C1707.8 1154.89 1701.98 1200.66 1726.74 1216.67H1726.79Z" fill="#CE7700"/>
<path opacity="0.3" d="M1725.2 1217.66C1758.55 1213.74 1789.51 1194.7 1804.67 1164.83C1809.05 1156.18 1812.38 1146.93 1817.2 1138.28C1822.12 1129.29 1829.13 1121.24 1837.23 1115.07C1845.13 1108.91 1854.48 1104.19 1863.82 1100.86C1877.64 1095.84 1891.76 1091.61 1906.02 1088.13C1892.75 1094.35 1879.28 1100.01 1866.11 1106.32C1853.38 1112.09 1841.26 1120.29 1832.51 1131.08C1820.33 1145.74 1816.5 1166.72 1804.23 1181.78C1785.89 1205.53 1754.77 1219.95 1725.15 1217.66H1725.2Z" fill="black"/>
<g opacity="0.3">
<path d="M1834.99 1082.76C1832.36 1082.02 1829.72 1082.91 1827.24 1083.81C1800.55 1093.5 1774.11 1105.63 1753.53 1124.76C1736.98 1140.12 1724.65 1160.7 1721.92 1182.27C1720.18 1196.04 1733.45 1207.37 1747.22 1203.2C1747.66 1203.05 1748.11 1202.9 1748.56 1202.75C1765.85 1196.39 1775.75 1178.84 1782.01 1162.09C1788.27 1145.34 1792.94 1127.2 1805.52 1114.08C1813.97 1105.28 1825.3 1099.56 1834.84 1091.86C1836.83 1090.27 1838.92 1088.18 1838.17 1085.65C1837.73 1084.21 1836.44 1083.16 1834.94 1082.71L1834.99 1082.76Z" fill="white"/>
</g>
<g opacity="0.3">
<path d="M1855.47 1076.85L1854.73 1077.15C1851.45 1078.69 1850.85 1084.01 1853.73 1086.24C1856.62 1088.48 1861.59 1086.59 1862.28 1083.01C1862.98 1079.43 1859 1075.86 1855.52 1076.9L1855.47 1076.85Z" fill="white"/>
</g>
<g opacity="0.3">
<path d="M1912.48 1109.51V1109.41C1911.24 1104.04 1905.72 1100.76 1900.31 1101.9C1882.46 1105.63 1862.78 1114.58 1849.61 1126.26C1845.83 1129.59 1842.2 1133.36 1841.26 1138.53C1840.91 1140.42 1841.01 1142.46 1841.7 1144.25C1844.04 1150.16 1850.6 1151.01 1856.27 1151.06C1867.5 1151.06 1878.93 1149.52 1889.02 1144.65C1899.16 1139.78 1907.86 1131.38 1911.44 1120.74C1912.68 1117.16 1913.28 1113.23 1912.48 1109.56V1109.51Z" fill="white"/>
</g>
<path opacity="0.3" d="M1852.74 1205.09C1824.51 1230.98 1781.61 1241.47 1744.63 1231.43C1782.85 1234.21 1820.08 1225.17 1852.74 1205.09Z" fill="white"/>
<path d="M1426.57 1456.25C1425.97 1457.89 1370.65 1617.64 1533.88 1709.24C1714.61 1810.69 1796.47 1661.77 1796.47 1661.77L1426.62 1456.25H1426.57Z" fill="#CE7700"/>
<path opacity="0.3" d="M1426.57 1456.25C1425.97 1457.89 1370.65 1617.64 1533.88 1709.24C1714.61 1810.69 1796.47 1661.77 1796.47 1661.77L1426.62 1456.25H1426.57Z" fill="black"/>
<path d="M1448.89 1428.91C1448.89 1428.91 1376.17 1479.06 1482.49 1595.02C1588.81 1711.03 1700.99 1722.96 1757.11 1693.98C1813.22 1665 1796.67 1637.52 1796.67 1637.52C1796.67 1637.52 1813.02 1630.76 1808.7 1586.92C1804.38 1543.13 1767.15 1452.17 1646.71 1398.94C1540.05 1351.82 1458.03 1375.23 1448.94 1428.91H1448.89Z" fill="#CE7700"/>
<path opacity="0.3" d="M1446.1 1426.87C1477.02 1480.6 1531.85 1519.42 1593.68 1523.45C1611.52 1524.59 1629.66 1523.54 1647.86 1525.38C1666.69 1527.22 1685.43 1533.24 1701.88 1542.53C1718.14 1551.48 1732.9 1563.9 1745.38 1577.37C1763.97 1597.21 1781.41 1618.08 1797.67 1639.85C1777.44 1621.81 1758.1 1603.07 1737.72 1585.28C1718.73 1567.88 1695.92 1553.22 1671.22 1546.21C1637.42 1536.17 1599.05 1544.92 1564.5 1535.03C1510.87 1521.16 1463.7 1478.81 1446.06 1426.82L1446.1 1426.87Z" fill="black"/>
<g opacity="0.3">
<path d="M1755.02 1515.34C1754.37 1510.32 1750.89 1506.5 1747.56 1502.92C1711.68 1464.65 1671.86 1428.56 1624.44 1407.53C1586.32 1390.63 1542.43 1384.62 1503.81 1395.7C1479.16 1402.76 1469.57 1433.53 1486.66 1453.96C1487.21 1454.6 1487.81 1455.3 1488.4 1455.9C1511.81 1480.7 1548.74 1484.68 1581.8 1483.14C1614.85 1481.59 1649 1476.28 1680.46 1488.16C1701.59 1496.11 1719.48 1511.17 1739.46 1521.86C1743.59 1524.04 1748.71 1526.08 1752.38 1523C1754.52 1521.21 1755.37 1518.28 1755.02 1515.39V1515.34Z" fill="white"/>
</g>
<g opacity="0.3">
<path d="M1779.87 1545.76L1778.83 1544.67C1773.81 1540.2 1764.36 1543.03 1762.67 1549.54C1760.98 1556.05 1767.79 1563.16 1774.35 1561.67C1780.91 1560.23 1784.15 1550.93 1779.87 1545.71V1545.76Z" fill="white"/>
</g>
<g opacity="0.3">
<path d="M1765.9 1666.3L1766.05 1666.2C1774.3 1660.18 1775.85 1648.5 1769.98 1640.1C1750.69 1612.47 1721.22 1585.58 1691.79 1571.66C1683.39 1567.68 1674.35 1564.3 1664.85 1566.39C1661.33 1567.19 1658 1568.83 1655.46 1571.36C1647.11 1579.61 1650.39 1591.39 1654.52 1601.03C1662.62 1620.12 1673.6 1638.36 1689.26 1652.03C1704.87 1665.65 1725.49 1674.35 1746.17 1672.76C1753.18 1672.21 1760.24 1670.42 1765.95 1666.35L1765.9 1666.3Z" fill="white"/>
</g>
<path opacity="0.3" d="M1441.38 1483.09C1461.36 1536.12 1496.06 1583.29 1541.09 1617.69C1546.71 1622.01 1555.11 1627.88 1560.92 1631.85C1557.29 1629.96 1553.72 1628.07 1550.14 1626.09C1497.15 1595.22 1456.54 1542.63 1441.38 1483.14V1483.09Z" fill="white"/>
</svg>
