<svg width="2486" height="2209" viewBox="0 0 2486 2209" fill="none" xmlns="http://www.w3.org/2000/svg">
<path d="M2256.14 1886.34C2232.38 1869.39 2195.8 1865.96 2169.95 1852.39C2119.01 1825.65 2122.04 1815.56 2079.99 1776.29C2052.2 1750.4 1980.63 1720.23 1960.6 1662.87C1939.82 1603.37 1932.81 1525.58 1892.65 1476.97L1897.57 1472.15C1897.57 1472.15 2083.32 1546.36 2117.76 1573C2152.21 1599.64 2192.52 1648.3 2199.82 1697.81C2207.18 1747.31 2188.64 1766.6 2208.32 1802.83C2228.01 1839.07 2238.25 1851.99 2247.84 1866.75C2257.43 1881.52 2256.14 1886.34 2256.14 1886.34Z" fill="#E6E6E6"/>
<path d="M1894.54 1475.13C1978.34 1513.16 2042.76 1586.02 2086.05 1666C2096.44 1686.38 2106.93 1706.51 2118.86 1725.99C2154.2 1784.54 2199.23 1837.18 2253.9 1878.68C2235.12 1865.66 2217.42 1851.1 2200.72 1835.44C2150.62 1788.17 2112.25 1729.62 2081.73 1668.33C2039.08 1588.71 1976.01 1516.39 1894.54 1475.18V1475.13Z" fill="#E0E0E0"/>
<path d="M2073.67 1650.64C2106.78 1683 2157.82 1685.43 2191.38 1717.24C2196.05 1721.87 2200.32 1726.89 2203.55 1732.55C2169.85 1691.3 2106.48 1692.89 2073.67 1650.64Z" fill="#E0E0E0"/>
<path d="M2001.26 1555.41C2026.51 1581.6 2036.2 1619.67 2022.03 1653.72C2012.29 1678.72 2021.73 1704.62 2034.31 1726.79C2038.38 1734.49 2042.91 1741.9 2047.28 1749.5C2036.84 1735.54 2026.75 1721.07 2019.75 1704.77C2016.22 1696.67 2013.78 1687.87 2013.18 1678.82C2011.79 1660.78 2021.63 1644.58 2023.77 1627.43C2026.8 1601.68 2016.56 1576.08 2001.21 1555.46L2001.26 1555.41Z" fill="#E0E0E0"/>
<path d="M1976.3 1529.81C2000.51 1537.51 2049.02 1553.22 2073.13 1561.12C2105.19 1572.4 2136.15 1589.45 2159.56 1614.36C2107.62 1568.83 2037.14 1558.64 1976.3 1529.81Z" fill="#E0E0E0"/>
<path d="M1017.5 0C1015.81 24.2061 998.615 49.6052 993.644 73.364C983.852 120.235 991.954 123.665 994.887 171.481C996.825 203.043 978.285 265.025 1004.53 308.218C1031.77 353.101 1077.99 398.78 1087.93 450.324L1093.65 449.727C1093.65 449.727 1144.35 291.07 1145.49 254.835C1146.63 218.601 1136.69 166.958 1108.76 135.992C1080.83 105.075 1058.66 106.765 1045.78 74.9048C1032.96 43.0442 1030.03 29.6736 1025.65 15.7066C1021.23 1.73966 1017.45 0 1017.45 0H1017.5Z" fill="#EBEBEB"/>
<path d="M1090.17 450.075C1106.52 375.915 1093.4 297.233 1064.77 227.696C1041.66 175.556 1024.31 119.838 1020.63 62.5779C1019.49 43.541 1019.54 24.4047 1021.23 5.46729C1019.19 62.5778 1029.28 119.291 1048.17 172.972C1054.33 190.915 1061.79 208.262 1069.29 225.808C1097.73 296.04 1110.45 376.164 1090.12 450.075H1090.17Z" fill="#E0E0E0"/>
<path d="M1072.28 242.012C1063.13 203.938 1088.78 168.697 1089.57 131.17C1089.82 125.852 1089.33 120.484 1088.43 115.166C1090.42 120.235 1091.41 125.653 1092.01 131.071C1094.99 169.542 1069.54 203.54 1072.28 241.962V242.012Z" fill="#E0E0E0"/>
<path d="M1095.14 339.035C1089.77 318.308 1078.74 298.377 1060.65 286.746C1048.52 279.091 1032.81 276.805 1021.98 266.317C1016.46 261.098 1012.08 254.836 1008.75 248.225C1001.99 235.003 998.118 220.838 994.837 206.672C997.471 213.432 999.907 220.291 1002.74 226.951C1010.44 246.634 1021.98 266.268 1043.15 273.226C1072.33 281.925 1092.21 309.113 1095.14 339.035Z" fill="#E0E0E0"/>
<path d="M1098.32 368.559C1111.49 314.033 1142.21 263.484 1141.07 206.025C1147.58 249.02 1130.48 290.424 1114.28 329.293C1110.4 339.085 1102.35 358.817 1098.32 368.559Z" fill="#E0E0E0"/>
<path d="M260.054 391.274C293.257 409.417 317.96 450.174 348.33 472.641C408.273 516.977 418.363 507.732 487.9 534.622C533.827 552.367 609.428 618.872 687.613 609.825C768.781 600.431 863.468 564.694 942.846 584.128L945.679 575.629C945.679 575.629 754.217 400.818 703.668 375.667C653.118 350.517 573.591 331.032 511.709 350.417C449.826 369.802 437.798 402.309 384.415 399.824C331.032 397.289 310.157 392.716 287.541 389.833C264.925 386.95 260.005 391.225 260.005 391.225L260.054 391.274Z" fill="#E6E6E6"/>
<path d="M943.989 580.848C850.147 508.577 730.061 475.673 613.007 470.851C553.808 470.006 494.262 465.086 436.257 452.063C378.401 439.14 322.086 418.413 270.293 389.535C349.373 430.292 436.356 453.256 524.582 461.507C554.007 464.439 583.432 465.334 613.106 465.931C730.757 471.199 851.986 505.098 943.94 580.848H943.989Z" fill="#E0E0E0"/>
<path d="M638.058 471C570.708 455.691 536.71 380.787 469.161 365.776C477.561 366.521 485.812 368.758 493.765 371.691C549.484 393.312 581.245 451.566 638.107 471H638.058Z" fill="#E0E0E0"/>
<path d="M790.054 501.718C757.299 495.008 721.512 497.444 692.931 515.387C683.637 521.302 675.833 529.354 667.532 537.158C651.378 553.659 628.465 563.402 605.352 563.899C582.438 565.091 559.872 561.662 537.654 557.636C548.937 558.58 560.17 559.773 571.453 560.32C604.507 562.706 640.493 559.326 664.152 533.579C672.403 526.024 680.555 517.773 690.496 511.659C719.971 493.467 757.547 492.075 790.054 501.768V501.718Z" fill="#E0E0E0"/>
<path d="M833.993 516.381C800.542 487.801 769.626 456.338 738.759 425.123C708.042 394.157 672.105 367.615 631.894 350.368C673.994 364.086 710.974 390.777 742.288 421.644L833.993 516.431V516.381Z" fill="#E0E0E0"/>
<path d="M2189.24 1434.03C2188.54 1434.52 2119.95 1483.88 2053.99 1418.07C1981.03 1345.25 2040.87 1285.56 2040.87 1285.56L2189.24 1433.98V1434.03Z" fill="#E0E0E0"/>
<path d="M2201.47 1419.41C2201.47 1419.41 2187.5 1461.41 2116.87 1426.42C2046.24 1391.43 2024.86 1339.14 2030.98 1308.13C2037.09 1277.11 2052.65 1281.23 2052.65 1281.23C2052.65 1281.23 2053.64 1272.44 2075.32 1268.41C2096.99 1264.39 2145.95 1269.6 2188.34 1320.15C2225.87 1364.89 2226.07 1407.63 2201.52 1419.51L2201.47 1419.41Z" fill="#EBEBEB"/>
<path d="M2202.11 1419.26C2172.09 1411.96 2145.9 1391.13 2135.41 1362.2C2132.38 1353.85 2130.34 1345.06 2126.96 1336.66C2123.48 1327.96 2117.96 1319.81 2111.25 1313.24C2104.69 1306.73 2096.74 1301.41 2088.54 1297.29C2076.46 1291.13 2064.08 1285.71 2051.41 1280.99C2062.84 1288.14 2074.52 1294.8 2085.85 1302.06C2096.84 1308.72 2106.98 1317.57 2113.79 1328.4C2123.28 1343.12 2124.42 1362.65 2133.97 1377.71C2148.03 1401.37 2174.87 1418.02 2202.16 1419.26H2202.11Z" fill="#E0E0E0"/>
<g opacity="0.3">
<path d="M2052.8 1304.2C2054.29 1301.46 2058.42 1300.82 2061.99 1302.46C2073.72 1307.88 2086.05 1316.48 2093.61 1325.32C2095.74 1327.86 2097.78 1330.54 2097.83 1333.52C2097.83 1334.62 2097.53 1335.66 2096.84 1336.51C2094.55 1339.24 2089.98 1338.45 2086.1 1337.35C2078.45 1335.21 2070.84 1332.13 2064.58 1327.61C2058.27 1323.04 2053.35 1316.82 2052.2 1310.46C2051.8 1308.27 2051.85 1306.09 2052.85 1304.25L2052.8 1304.2Z" fill="white"/>
</g>
<path opacity="0.3" d="M2066.72 1279C2099.17 1269.26 2137.25 1281.14 2159.37 1306.53C2132.18 1286.65 2100.47 1276.56 2066.72 1279Z" fill="white"/>
<path opacity="0.3" d="M2169.16 1316.48C2175.27 1318.07 2179.1 1322.14 2180.24 1328.36C2174.08 1326.76 2170.3 1322.69 2169.16 1316.48Z" fill="white"/>
<path opacity="0.3" d="M2117.07 1357.08C2124.12 1382.38 2139.68 1403.06 2162.05 1416.78C2136.5 1409.92 2116.62 1383.53 2117.07 1357.08Z" fill="white"/>
<path d="M459.221 1580.21C459.668 1581 500.227 1655.06 426.913 1712.47C345.696 1776.04 293.804 1709.34 293.804 1709.34L459.221 1580.21Z" fill="#E0E0E0"/>
<path d="M446.248 1566.29C446.248 1566.29 486.21 1585.28 442.868 1651.14C399.525 1716.95 345 1731.81 314.928 1721.97C284.857 1712.07 290.871 1697.16 290.871 1697.16C290.871 1697.16 282.223 1695.12 280.881 1673.11C279.539 1651.09 290.672 1603.17 346.043 1567.23C395.052 1535.42 437.45 1540.49 446.248 1566.29Z" fill="#EBEBEB"/>
<path d="M446.198 1565.64C435.263 1594.52 411.405 1617.98 381.433 1624.89C372.784 1626.88 363.788 1627.83 355.04 1630.16C345.944 1632.55 337.246 1637.02 329.889 1642.94C322.632 1648.65 316.37 1655.91 311.3 1663.51C303.745 1674.75 296.836 1686.38 290.573 1698.41C299.072 1687.92 307.075 1677.18 315.674 1666.79C323.627 1656.7 333.667 1647.71 345.198 1642.29C360.955 1634.63 380.489 1635.93 396.643 1628.27C421.843 1617.19 441.625 1592.58 446.248 1565.64H446.198Z" fill="#E0E0E0"/>
<g opacity="0.3">
<path d="M313.735 1699.8H313.686C311.25 1697.96 311.051 1693.78 313.139 1690.45C319.948 1679.47 329.989 1668.28 339.681 1661.87C342.465 1660.03 345.397 1658.39 348.33 1658.69C349.423 1658.79 350.417 1659.24 351.163 1660.03C353.598 1662.67 352.256 1667.09 350.716 1670.82C347.634 1678.18 343.707 1685.33 338.389 1691C333.07 1696.72 326.311 1700.84 319.849 1701.19C317.662 1701.34 315.475 1700.99 313.735 1699.8Z" fill="white"/>
</g>
<path opacity="0.3" d="M290.424 1682.85C284.708 1649.45 301.16 1613.11 329.094 1594.22C306.031 1618.78 292.164 1649.05 290.424 1682.85Z" fill="white"/>
<path opacity="0.3" d="M340.128 1585.77C342.465 1579.91 346.938 1576.58 353.3 1576.23C351.014 1582.15 346.441 1585.38 340.128 1585.77Z" fill="white"/>
<path opacity="0.3" d="M374.077 1642.44C400.072 1638.56 422.439 1625.59 438.842 1605.06C428.901 1629.56 400.271 1646.07 374.077 1642.44Z" fill="white"/>
<path d="M510.168 719.672C510.019 720.169 495.058 765.45 443.116 757.299C385.608 748.302 393.114 701.182 393.114 701.182L510.168 719.672Z" fill="#E0E0E0"/>
<path d="M510.913 708.936C510.913 708.936 518.468 732.745 474.579 740.25C430.69 747.755 403.551 730.955 396.046 714.752C388.541 698.548 396.99 695.267 396.99 695.267C396.99 695.267 394.505 690.893 403.054 681.897C411.604 672.851 435.71 658.983 471.846 667.98C503.855 675.932 518.12 695.416 510.864 708.986L510.913 708.936Z" fill="#EBEBEB"/>
<path d="M511.162 708.638C495.008 715.249 476.17 714.453 461.756 704.761C457.58 701.928 453.753 698.598 449.379 695.914C444.906 693.08 439.687 691.192 434.418 690.446C429.249 689.651 423.831 689.85 418.761 690.695C411.206 691.887 403.75 693.528 396.394 695.566C403.999 695.019 411.504 694.224 419.109 693.727C426.316 693.13 433.921 693.776 440.581 696.46C449.826 700.039 456.835 708.538 466.179 712.266C480.494 718.38 498.239 717.088 511.162 708.588V708.638Z" fill="#E0E0E0"/>
<g opacity="0.3">
<path d="M404.744 705.705C404.546 703.965 406.186 702.276 408.373 701.828C415.53 700.436 424.03 700.238 430.392 701.779C432.231 702.226 434.02 702.773 435.064 704.115C435.412 704.612 435.661 705.208 435.611 705.805C435.462 707.793 433.126 708.986 430.988 709.781C426.763 711.322 422.29 712.465 417.916 712.465C413.542 712.465 409.218 711.272 406.534 708.737C405.639 707.892 404.943 706.848 404.744 705.655V705.705Z" fill="white"/>
</g>
<path opacity="0.3" d="M402.756 689.551C413.194 673.198 435.86 665.494 454.201 671.359C435.015 672.95 418.513 678.368 402.756 689.551Z" fill="white"/>
<path opacity="0.3" d="M461.954 672.652C465.434 669.868 468.764 670.514 470.951 674.391C467.472 677.175 464.141 676.479 461.954 672.652Z" fill="white"/>
<path opacity="0.3" d="M451.666 708.489C464.44 716.541 476.965 720.318 492.026 720.815C478.407 727.774 459.072 721.859 451.666 708.489Z" fill="white"/>
<path d="M2166.97 1094.5C2167.12 1094.99 2179.94 1140.92 2132.28 1163.09C2079.49 1187.64 2059.46 1144.35 2059.46 1144.35L2166.97 1094.5Z" fill="#E0E0E0"/>
<path d="M2161.65 1085.15C2161.65 1085.15 2181.19 1100.71 2148.93 1131.38C2116.67 1162.04 2084.76 1163.24 2069.5 1153.99C2054.24 1144.7 2059.46 1137.29 2059.46 1137.29C2059.46 1137.29 2054.99 1135.05 2057.02 1122.78C2059.06 1110.5 2071.39 1085.55 2106.38 1072.87C2137.4 1061.64 2160.11 1069.84 2161.6 1085.15H2161.65Z" fill="#EBEBEB"/>
<path d="M2161.7 1084.8C2152.01 1099.27 2135.86 1109.16 2118.51 1109.11C2113.49 1109.11 2108.42 1108.46 2103.3 1108.66C2097.98 1108.81 2092.61 1110.15 2087.84 1112.44C2083.12 1114.63 2078.74 1117.86 2074.97 1121.39C2069.35 1126.6 2064.08 1132.12 2059.11 1137.94C2065.13 1133.26 2070.89 1128.39 2076.96 1123.77C2082.62 1119.25 2089.28 1115.57 2096.34 1114.08C2105.98 1111.89 2116.57 1115.07 2126.41 1112.94C2141.72 1110.05 2155.74 1099.07 2161.7 1084.8Z" fill="#E0E0E0"/>
<g opacity="0.3">
<path d="M2071.69 1141.66C2070.54 1140.32 2070.99 1137.99 2072.58 1136.45C2077.75 1131.28 2084.71 1126.41 2090.82 1124.12C2092.56 1123.47 2094.4 1122.93 2095.99 1123.47C2096.59 1123.67 2097.09 1124.07 2097.38 1124.57C2098.38 1126.31 2097.09 1128.59 2095.74 1130.43C2093.11 1134.06 2090.03 1137.49 2086.4 1139.97C2082.77 1142.41 2078.5 1143.85 2074.87 1143.21C2073.63 1143.01 2072.48 1142.56 2071.69 1141.66Z" fill="white"/>
</g>
<path opacity="0.3" d="M2061 1129.39C2060.55 1110 2075.07 1090.97 2093.61 1085.6C2078.55 1097.63 2067.86 1111.34 2061 1129.39Z" fill="white"/>
<path opacity="0.3" d="M2100.76 1082.32C2102.11 1078.09 2105.24 1076.75 2109.21 1078.74C2107.87 1082.96 2104.74 1084.31 2100.76 1082.32Z" fill="white"/>
<path opacity="0.3" d="M2112.2 1117.81C2127.31 1117.36 2139.78 1113.53 2152.61 1105.53C2145.2 1118.9 2125.82 1124.76 2112.2 1117.81Z" fill="white"/>
<path d="M1883.6 1673.45C1883.9 1673.85 1911.39 1712.87 1873.86 1749.7C1832.31 1790.51 1798.96 1756.41 1798.96 1756.41L1883.6 1673.45Z" fill="#E0E0E0"/>
<path d="M1875.4 1666.5C1875.4 1666.5 1899.01 1674.65 1878.88 1714.31C1858.75 1753.98 1829.08 1765.81 1811.58 1762.18C1794.09 1758.55 1796.52 1749.8 1796.52 1749.8C1796.52 1749.8 1791.55 1749.2 1789.41 1736.93C1787.28 1724.65 1790.46 1697.06 1819.24 1673.4C1844.69 1652.43 1868.84 1652.58 1875.4 1666.54V1666.5Z" fill="#EBEBEB"/>
<path d="M1875.35 1666.1C1871.03 1683 1859.15 1697.66 1842.8 1703.48C1838.08 1705.17 1833.1 1706.21 1828.33 1708.1C1823.41 1710.04 1818.79 1713.07 1815.01 1716.85C1811.28 1720.52 1808.25 1725 1805.87 1729.57C1802.34 1736.38 1799.21 1743.34 1796.42 1750.45C1800.55 1744.03 1804.33 1737.47 1808.5 1731.11C1812.33 1724.95 1817.4 1719.28 1823.51 1715.5C1831.86 1710.24 1842.9 1709.69 1851.5 1704.37C1864.92 1696.57 1874.46 1681.51 1875.35 1666.1Z" fill="#E0E0E0"/>
<g opacity="0.3">
<path d="M1809.54 1749.8C1808.05 1748.91 1807.71 1746.57 1808.65 1744.58C1811.78 1737.97 1816.7 1731.06 1821.72 1726.89C1823.16 1725.69 1824.7 1724.55 1826.39 1724.55C1826.99 1724.55 1827.59 1724.75 1828.08 1725.15C1829.63 1726.44 1829.13 1729.02 1828.48 1731.21C1827.24 1735.53 1825.45 1739.81 1822.87 1743.34C1820.23 1746.87 1816.7 1749.6 1813.12 1750.25C1811.88 1750.45 1810.64 1750.4 1809.59 1749.85L1809.54 1749.8Z" fill="white"/>
</g>
<path opacity="0.3" d="M1795.38 1741.8C1788.47 1723.71 1795.78 1700.89 1811.43 1689.61C1801.24 1705.96 1795.78 1722.46 1795.38 1741.8Z" fill="white"/>
<path opacity="0.3" d="M1817.1 1684.14C1816.95 1679.72 1819.49 1677.38 1823.86 1677.93C1824.01 1682.35 1821.47 1684.69 1817.1 1684.14Z" fill="white"/>
<path opacity="0.3" d="M1839.77 1713.76C1853.88 1708.3 1864.37 1700.54 1873.71 1688.66C1871.23 1703.77 1854.88 1715.75 1839.77 1713.76Z" fill="white"/>
<path d="M2206.49 1530.9H1308.08C1292.02 1530.9 1278.95 1517.83 1278.95 1501.77V193.152C1278.95 177.097 1292.02 164.025 1308.08 164.025H2206.49C2222.54 164.025 2235.61 177.097 2235.61 193.152V1501.77C2235.61 1517.83 2222.54 1530.9 2206.49 1530.9ZM1308.08 165.268C1292.72 165.268 1280.19 177.793 1280.19 193.152V1501.77C1280.19 1517.13 1292.72 1529.66 1308.08 1529.66H2206.49C2221.84 1529.66 2234.37 1517.13 2234.37 1501.77V193.152C2234.37 177.793 2221.84 165.268 2206.49 165.268H1308.08Z" fill="#E0E0E0"/>
<path d="M1170.49 1530.9H272.132C256.078 1530.9 243.006 1517.83 243.006 1501.77V193.152C243.006 177.097 256.078 164.025 272.132 164.025H1170.49C1186.55 164.025 1199.62 177.097 1199.62 193.152V1501.77C1199.62 1517.83 1186.55 1530.9 1170.49 1530.9ZM272.132 165.268C256.774 165.268 244.248 177.793 244.248 193.152V1501.77C244.248 1517.13 256.774 1529.66 272.132 1529.66H1170.49C1185.85 1529.66 1198.38 1517.13 1198.38 1501.77V193.152C1198.38 177.793 1185.85 165.268 1170.49 165.268H272.132Z" fill="#E0E0E0"/>
<path d="M2485.23 1834.45H0V1835.69H2485.23V1834.45Z" fill="#E0E0E0"/>
<path d="M336.649 1905.33H256.823V1906.57H336.649V1905.33Z" fill="#E0E0E0"/>
<path d="M1112.79 1891.86H846.718V1893.1H1112.79V1891.86Z" fill="#E0E0E0"/>
<path d="M521.799 1951.5H341.62V1952.74H521.799V1951.5Z" fill="#E0E0E0"/>
<path d="M2095.25 1891.21H1880.57V1892.45H2095.25V1891.21Z" fill="#E0E0E0"/>
<path d="M2171 1891.21H2139.53V1892.45H2171V1891.21Z" fill="#E0E0E0"/>
<path d="M1839.57 1922.18H1571.71V1923.42H1839.57V1922.18Z" fill="#E0E0E0"/>
<path d="M2280.84 2178.15C2280.84 2195 1816.01 2208.62 1242.61 2208.62C669.223 2208.62 204.385 2194.95 204.385 2178.15C204.385 2161.35 669.223 2147.69 1242.61 2147.69C1816.01 2147.69 2280.84 2161.35 2280.84 2178.15Z" fill="#F5F5F5"/>
<path d="M1360.12 584.277L1138.23 1627.33C1138.23 1627.33 1254.05 1810.49 1518.08 1836.53C1518.08 1836.53 1588.91 1850.7 1670.97 1815.01L2129.99 837.124L1360.07 584.277H1360.12Z" fill="#CE7700"/>
<path opacity="0.5" d="M1360.12 584.277L1138.23 1627.33C1138.23 1627.33 1254.05 1810.49 1518.08 1836.53C1518.08 1836.53 1588.91 1850.7 1670.97 1815.01L2129.99 837.124L1360.07 584.277H1360.12Z" fill="white"/>
<path opacity="0.5" d="M1441.43 600.531C1441.43 600.531 1519.32 981.964 2035.7 1044.64L2106.68 893.44C1590.3 830.712 1489.65 374.027 1489.65 374.027" fill="white"/>
<path opacity="0.3" d="M1356.98 599.189C1356.98 599.189 1516.64 808.544 1761.63 868.488C2006.62 928.432 2119.95 858.746 2119.95 858.746L2143.81 813.962L1357.03 599.139L1356.98 599.189Z" fill="black"/>
<path d="M2183.47 805.612L2193.81 719.673L2155.34 660.126L2178.45 573.491L1812.83 459.419L1446.35 344.502L1417.97 420.6L1352.11 446.894L1310.71 522.942C1331.98 660.872 1708.89 778.225 1708.89 778.225C1753.78 793.335 2091.67 902.784 2183.42 805.661L2183.47 805.612Z" fill="#263238"/>
<path opacity="0.3" d="M1418.02 420.6C1418.02 420.6 1537.11 541.035 1811.14 617.927C2085.16 694.82 2155.39 660.077 2155.39 660.077L2177.36 577.716L1446.4 344.354L1418.02 420.6Z" fill="black"/>
<path d="M2177.36 577.716C2164.04 617.679 1987.93 605.452 1786.68 538.301C1585.43 471.15 1433.08 384.316 1446.4 344.353C1459.72 304.391 1633.69 326.46 1834.99 393.611C2036.3 460.761 2190.73 537.754 2177.36 577.716Z" fill="#263238"/>
<path opacity="0.3" d="M1708.94 778.175C1753.83 793.285 2091.72 902.735 2183.47 805.612L2193.11 725.24C2137.69 746.861 2022.58 764.705 1803.38 705.308C1419.26 601.227 1352.16 446.894 1352.16 446.894L1310.76 522.942C1332.03 660.872 1708.94 778.225 1708.94 778.225V778.175Z" fill="black"/>
<path opacity="0.3" d="M1706.05 452.153C1709.28 443.482 1680.2 424.675 1641.12 410.147C1602.03 395.619 1567.74 390.871 1564.51 399.543C1561.29 408.214 1590.36 427.021 1629.45 441.549C1668.53 456.077 1702.83 460.825 1706.05 452.153Z" fill="black"/>
<path opacity="0.3" d="M1825.8 443.266C1966.61 487.254 2081.73 535.766 2112.99 562.656C2115.63 561.562 2117.32 560.121 2117.86 558.332C2124.27 537.903 1992.01 478.357 1822.47 425.422C1652.93 372.437 1510.37 346.093 1503.96 366.571C1502.87 370.051 1505.8 374.624 1512.16 380.091C1539.25 368.908 1671.32 395.052 1825.8 443.315V443.266Z" fill="black"/>
<path d="M1168.55 1622.51C1292.17 1751.14 1481.25 1831.46 1659.04 1784.89L1626.13 1793.34L1592.58 1798.86C1433.33 1816.45 1273.08 1740.65 1168.5 1622.51H1168.55Z" fill="black"/>
<path opacity="0.5" d="M1234.26 1176.06L1189.13 1388.15C1266.08 1514.65 1417.48 1663.66 1727.28 1701.29L1801.29 1543.63C1477.02 1504.26 1315.83 1319.66 1234.21 1176.01L1234.26 1176.06Z" fill="white"/>
<path opacity="0.5" d="M1288.99 918.839C1288.99 918.839 1366.88 1300.27 1883.26 1362.95L1954.23 1211.75C1437.85 1149.02 1337.2 692.335 1337.2 692.335" fill="white"/>
<path opacity="0.5" d="M1416.73 646.11L1155.68 1650.54C1186.99 1692.99 1228.65 1728.03 1278.85 1756.96L1566.99 724.643C1508.83 699.393 1458.03 673.298 1416.73 646.11Z" fill="white"/>
<path d="M409.218 1164.98L817.044 2150.32C817.044 2150.32 1016.21 2235.66 1248.63 2107.62C1248.63 2107.62 1315.03 2079.19 1362.45 2003.29L1186.99 937.329L409.218 1164.98Z" fill="#CE7700"/>
<path opacity="0.3" d="M415.033 1179.04C415.033 1179.04 665.196 1261.2 901.045 1171.83C1136.89 1082.52 1190.87 960.889 1190.87 960.889L1185.16 910.488L415.033 1179.04Z" fill="black"/>
<path d="M1213.19 881.113L1173.03 804.419L1107.62 777.081L1077.6 692.583L711.67 805.661L344.552 918.491L364.235 997.273L324.82 1056.22L333.766 1142.31C429.398 1243.96 806.507 1127.2 806.507 1127.2C852.086 1114.23 1192.51 1013.08 1213.14 881.063L1213.19 881.113Z" fill="#263238"/>
<path opacity="0.3" d="M364.235 997.273C364.235 997.273 530.596 1029.08 799.995 937.279C1069.39 845.475 1107.62 777.081 1107.62 777.081L1079.09 696.759L344.453 918.391L364.235 997.273Z" fill="black"/>
<path d="M1079.04 696.759C1090.67 737.268 938.621 826.885 734.733 885.537C530.795 944.188 356.084 958.851 344.453 918.392C332.822 877.932 488.695 797.56 692.584 738.908C896.522 680.257 1067.41 656.299 1079.04 696.759Z" fill="#263238"/>
<path opacity="0.3" d="M806.507 1127.25C852.086 1114.28 1192.51 1013.13 1213.14 881.113L1175.56 809.389C1142.11 858.597 1057.32 938.522 843.039 1013.68C467.521 1145.44 324.77 1056.22 324.77 1056.22L333.717 1142.31C429.348 1243.96 806.457 1127.2 806.457 1127.2L806.507 1127.25Z" fill="black"/>
<path opacity="0.3" d="M619.369 860.187C621.606 869.134 590.64 884.642 550.23 894.831C509.77 904.971 475.176 905.965 472.939 897.018C470.702 888.072 501.668 872.564 542.078 862.374C582.488 852.185 617.132 851.24 619.369 860.187Z" fill="black"/>
<path opacity="0.3" d="M713.161 784.984C854.173 741.493 976.496 716.293 1017.5 720.766C1019.04 718.38 1019.64 716.243 1019.04 714.404C1012.73 693.925 870.029 719.772 700.337 772.111C530.646 824.45 398.183 883.499 404.496 903.977C405.54 907.456 410.56 909.594 418.91 910.488C434.915 885.934 558.58 832.701 713.211 784.984H713.161Z" fill="black"/>
<path opacity="0.3" d="M516.928 1425.13C516.928 1425.13 877.634 1491.63 1230.74 1203.15L1285.21 1533.98C1285.21 1533.98 1019.29 1827.79 638.605 1719.08L516.928 1425.13Z" fill="white"/>
<path d="M815.603 1613.21L817.939 1611.47C820.871 1609.68 822.959 1608.79 824.201 1608.74C826.935 1608.74 829.868 1611.12 833.099 1615.95C835.087 1618.98 836.081 1621.41 836.081 1623.25C836.081 1625.09 835.534 1626.63 834.391 1627.87C833.248 1629.12 831.856 1630.21 830.315 1631.21C828.774 1632.2 827.283 1633.14 825.842 1634.04C824.4 1634.93 821.468 1636.13 817.044 1637.57C812.62 1639.06 808.296 1639.8 804.121 1639.85C799.946 1639.9 795.77 1639.46 791.496 1638.41C787.221 1637.37 782.847 1635.63 778.274 1633.09C773.751 1630.61 769.626 1627.48 765.997 1623.85C762.369 1620.17 759.337 1615.45 756.901 1609.68C754.516 1603.92 753.223 1597.6 753.124 1590.75C753.025 1583.94 754.068 1577.72 756.255 1572.11C758.442 1566.54 761.275 1561.87 764.755 1558.19C768.234 1554.51 772.26 1551.38 776.734 1548.89C785.233 1544.02 793.832 1541.54 802.481 1541.39C806.606 1541.34 810.781 1541.89 815.056 1543.08C819.33 1544.27 822.561 1545.51 824.748 1546.81L827.929 1548.6C829.52 1549.54 830.762 1550.29 831.657 1550.88C833.944 1552.67 835.136 1554.76 835.186 1557.05C835.186 1559.38 834.341 1561.82 832.552 1564.4C829.222 1569.17 826.19 1571.61 823.456 1571.66C821.865 1571.66 819.629 1570.76 816.696 1568.88C812.968 1565.94 808.047 1564.55 801.934 1564.65C796.218 1564.75 790.651 1566.79 785.233 1570.81C782.648 1572.8 780.511 1575.54 778.821 1579.06C777.131 1582.59 776.336 1586.57 776.386 1590.99C776.435 1595.42 777.38 1599.34 779.219 1602.82C781.008 1606.3 783.295 1609.04 786.028 1610.98C791.446 1614.75 797.013 1616.59 802.779 1616.49C805.512 1616.49 808.047 1616.05 810.433 1615.3C812.819 1614.55 814.559 1613.86 815.603 1613.11V1613.21Z" fill="white"/>
<path d="M852.632 1574.04C858.498 1565.89 866.102 1560.92 875.347 1559.08C884.642 1557.24 893.49 1558.93 901.939 1564.2C910.389 1569.42 915.608 1577.23 917.696 1587.51C919.087 1594.62 918.541 1601.33 915.906 1607.6C913.322 1613.86 909.644 1618.83 904.872 1622.51C900.1 1626.18 894.881 1628.57 889.215 1629.71C883.549 1630.86 877.783 1630.56 871.918 1628.82C866.053 1627.08 860.734 1623.85 856.012 1619.13C851.29 1614.4 848.209 1608.59 846.867 1601.73C844.829 1591.44 846.718 1582.2 852.632 1574.09V1574.04ZM875.646 1605.56C878.827 1607.1 881.809 1607.6 884.642 1607.05C887.475 1606.5 890.11 1604.86 892.495 1602.13C894.881 1599.44 895.677 1595.96 894.832 1591.74C893.987 1587.51 892.048 1584.68 888.966 1583.14C885.885 1581.6 882.803 1581.15 879.721 1581.75C876.64 1582.35 873.956 1583.99 871.719 1586.67C869.482 1589.35 868.786 1592.78 869.582 1596.91C870.427 1601.08 872.415 1603.92 875.546 1605.51L875.646 1605.56Z" fill="white"/>
<path d="M999.062 1521.71C1004.73 1519.57 1008.61 1519.87 1010.79 1522.65C1011.89 1524.04 1012.88 1525.98 1013.82 1528.52C1014.77 1531.05 1015.27 1533.19 1015.32 1534.88C1015.32 1536.62 1014.92 1538.01 1014.02 1539.1C1012.68 1540.74 1010.35 1542.18 1007.06 1543.38L999.012 1545.86L1011.39 1578.82C1012.58 1581.95 1013.03 1584.38 1012.83 1586.22C1012.63 1588.06 1011.84 1589.5 1010.39 1590.6C1009 1591.69 1007.01 1592.73 1004.48 1593.68C1001.94 1594.62 999.808 1595.12 998.118 1595.17C996.378 1595.17 994.986 1594.77 993.893 1593.83C992.799 1592.88 992.004 1591.94 991.507 1590.99C991.01 1590.05 990.413 1588.66 989.718 1586.77L977.49 1554.21C973.663 1555.95 970.482 1557.29 967.897 1558.24L955.67 1562.26L968.046 1595.22C969.239 1598.35 969.687 1600.79 969.488 1602.58C969.289 1604.41 968.444 1605.86 967.052 1606.95C965.661 1608.04 963.672 1609.09 961.137 1610.03C958.603 1610.98 956.465 1611.47 954.775 1611.52C953.036 1611.52 951.644 1611.12 950.55 1610.18C949.457 1609.24 948.662 1608.29 948.165 1607.35C947.668 1606.4 947.071 1605.01 946.375 1603.12L934.148 1570.57C932.657 1571.41 931.066 1572.16 929.227 1572.85C927.438 1573.55 925.648 1573.4 923.958 1572.45C922.269 1571.51 920.777 1569.37 919.485 1565.99C918.242 1562.61 917.497 1560.13 917.348 1558.44C917.199 1556.8 917.348 1555.46 917.845 1554.56C918.74 1553.02 920.181 1551.88 922.169 1551.13L926.394 1550.09L923.958 1543.58C921.573 1537.26 921.672 1530.7 924.257 1523.89C926.841 1517.08 932.408 1512.06 940.908 1508.88C942.797 1508.19 944.238 1507.69 945.232 1507.49C946.226 1507.24 947.419 1507.19 948.86 1507.29C951.495 1507.59 953.831 1510.37 955.769 1515.64C957.261 1519.57 957.608 1522.65 956.813 1524.79C956.167 1526.63 954.676 1528.02 952.24 1529.01C951.545 1529.36 950.401 1529.86 948.86 1530.45C945.828 1531.6 944.685 1533.19 945.481 1535.23L948.015 1541.99C952.34 1540 956.068 1538.41 959.249 1537.21L969.736 1533.83L967.301 1527.32C964.915 1521.01 965.014 1514.45 967.599 1507.64C970.184 1500.83 975.751 1495.81 984.25 1492.63C986.238 1491.88 987.68 1491.39 988.624 1491.19C989.568 1490.99 990.761 1490.94 992.203 1491.04C994.837 1491.34 997.173 1494.12 999.112 1499.39C1000.6 1503.31 1000.95 1506.4 1000.16 1508.53C999.509 1510.37 998.068 1511.76 995.682 1512.71C994.887 1513.11 993.744 1513.6 992.153 1514.2C989.121 1515.34 987.978 1516.93 988.773 1518.97L991.308 1525.73L999.012 1522L999.062 1521.71Z" fill="white"/>
<path d="M1086.05 1506.2C1088.58 1510.92 1089.28 1515.09 1088.18 1518.62C1087.04 1522.15 1085.05 1524.69 1082.22 1526.23L1054.78 1540.94C1055.92 1543.13 1058.21 1544.22 1061.54 1544.32C1064.87 1544.42 1067.8 1543.77 1070.34 1542.43C1074.81 1540.05 1078.09 1537.66 1080.13 1535.37L1081.17 1534.23C1082.57 1532.39 1083.91 1531.15 1085.1 1530.5C1087.59 1529.16 1090.62 1529.76 1094.25 1532.29C1096.38 1533.83 1097.83 1535.32 1098.62 1536.82C1102.3 1543.68 1095.94 1551.53 1079.48 1560.33C1073.77 1563.41 1068.15 1565.15 1062.68 1565.55C1057.22 1565.94 1052.35 1565.2 1048.12 1563.31C1039.92 1559.68 1033.76 1553.96 1029.58 1546.26C1024.36 1536.57 1023.32 1527.07 1026.5 1517.88C1029.68 1508.68 1035.94 1501.58 1045.34 1496.51C1056.07 1490.74 1065.96 1490.29 1075.01 1495.16C1079.78 1497.75 1083.46 1501.43 1086 1506.2H1086.05ZM1063.48 1522.7C1066.41 1521.11 1067.21 1519.12 1065.87 1516.64C1064.92 1514.85 1063.48 1513.8 1061.54 1513.45C1059.6 1513.11 1057.37 1513.6 1054.88 1514.95C1052.4 1516.29 1050.46 1518.67 1049.06 1522C1047.67 1525.38 1047.62 1528.22 1048.87 1530.5L1063.43 1522.7H1063.48Z" fill="white"/>
<path d="M1147.98 1458.38C1151.36 1462.56 1152.8 1466.53 1152.35 1470.21C1151.9 1473.89 1150.41 1476.77 1147.88 1478.81L1123.62 1498.34C1125.16 1500.23 1127.6 1500.93 1130.88 1500.43C1134.16 1499.94 1136.94 1498.74 1139.18 1496.95C1143.16 1493.77 1145.89 1490.84 1147.48 1488.25L1148.28 1486.96C1149.32 1484.87 1150.36 1483.43 1151.46 1482.54C1153.64 1480.8 1156.72 1480.8 1160.8 1482.59C1163.19 1483.73 1164.88 1484.92 1165.92 1486.22C1170.79 1492.28 1165.97 1501.18 1151.46 1512.86C1146.44 1516.93 1141.22 1519.67 1135.9 1521.11C1130.58 1522.55 1125.66 1522.7 1121.19 1521.61C1112.44 1519.52 1105.33 1515.1 1099.81 1508.29C1092.9 1499.69 1090.12 1490.59 1091.56 1480.95C1093 1471.31 1097.82 1463.15 1106.13 1456.44C1115.62 1448.79 1125.26 1446.55 1135.05 1449.63C1140.22 1451.32 1144.5 1454.26 1147.88 1458.43L1147.98 1458.38ZM1128.84 1478.81C1131.43 1476.72 1131.82 1474.59 1130.08 1472.4C1128.84 1470.86 1127.2 1470.06 1125.26 1470.06C1123.27 1470.06 1121.19 1470.96 1119 1472.75C1116.76 1474.54 1115.32 1477.22 1114.58 1480.75C1113.83 1484.33 1114.33 1487.11 1115.97 1489.15L1128.84 1478.76V1478.81Z" fill="white"/>
<path d="M839.312 2129.15C1014.02 2165.13 1215.38 2124.27 1335.51 1985.2L1313.2 2010.8L1288.64 2034.36C1167.31 2139.04 992.352 2167.32 839.262 2129.2L839.312 2129.15Z" fill="black"/>
<path d="M1203.6 448.286C1204.14 449.081 1258.02 523.141 1187.04 594.914C1108.46 674.441 1042.5 609.875 1042.5 609.875L1203.6 448.236V448.286Z" fill="#CE7700"/>
<path opacity="0.3" d="M1203.6 448.286C1204.14 449.081 1258.02 523.141 1187.04 594.914C1108.46 674.441 1042.5 609.875 1042.5 609.875L1203.6 448.236V448.286Z" fill="black"/>
<path d="M1187.69 435.064C1187.69 435.064 1233.27 449.976 1195.74 526.72C1158.22 603.463 1101.65 626.924 1067.95 620.462C1034.3 614.001 1038.68 597.151 1038.68 597.151C1038.68 597.151 1029.13 596.157 1024.66 572.647C1020.19 549.186 1025.6 496.102 1080.13 449.876C1128.44 408.92 1174.72 408.522 1187.74 435.064H1187.69Z" fill="#CE7700"/>
<path opacity="0.3" d="M1187.59 434.369C1179.79 466.925 1157.37 495.455 1126.11 506.987C1117.06 510.317 1107.57 512.554 1098.42 516.282C1088.98 520.109 1080.23 526.123 1073.12 533.43C1066.11 540.538 1060.4 549.236 1055.97 558.133C1049.36 571.255 1043.55 584.725 1038.48 598.493C1046.18 586.067 1053.34 573.392 1061.09 561.066C1068.25 549.136 1077.79 538.052 1089.47 530.646C1105.38 520.258 1126.5 518.916 1142.81 508.478C1168.41 493.07 1186.3 463.893 1187.49 434.319L1187.59 434.369Z" fill="black"/>
<g opacity="0.3">
<path d="M1063.63 596.852H1063.58C1060.7 595.212 1059.95 590.739 1061.69 586.862C1067.51 574.138 1076.75 560.717 1086.29 552.466C1089.03 550.13 1091.96 547.893 1095.19 547.844C1096.38 547.844 1097.53 548.142 1098.42 548.937C1101.4 551.422 1100.56 556.393 1099.42 560.568C1097.13 568.869 1093.85 577.12 1088.93 583.979C1084.01 590.838 1077.3 596.206 1070.39 597.499C1068.05 597.946 1065.62 597.896 1063.63 596.803V596.852Z" fill="white"/>
</g>
<path opacity="0.3" d="M1036.24 581.892C1025.8 546.701 1038.43 505.645 1065.62 481.29C1043.99 510.665 1033.16 545.359 1036.24 581.892Z" fill="white"/>
<path opacity="0.3" d="M1076.3 470.653C1078.19 464.191 1082.57 460.066 1089.13 458.575C1087.24 465.036 1082.86 469.162 1076.3 470.653Z" fill="white"/>
<path opacity="0.3" d="M1120.59 526.869C1148.03 519.413 1170.59 502.215 1185.06 477.761C1177.45 505.347 1149.17 526.869 1120.59 526.869Z" fill="white"/>
<path d="M969.289 421.645C968.742 422.142 914.614 471.548 851.24 421.545C781.058 366.174 826.488 307.97 826.488 307.97L969.289 421.694V421.645Z" fill="#CE7700"/>
<path opacity="0.3" d="M969.289 421.645C968.742 422.142 914.614 471.548 851.24 421.545C781.058 366.174 826.488 307.97 826.488 307.97L969.289 421.694V421.645Z" fill="black"/>
<path d="M978.335 407.827C978.335 407.827 970.532 445.403 906.164 422.34C841.797 399.327 818.137 356.432 820.275 329.094C822.412 301.757 836.23 303.745 836.23 303.745C836.23 303.745 836.23 296.041 854.471 290.424C872.713 284.758 915.409 284.36 957.012 323.577C993.843 358.321 998.316 395.102 978.335 407.827Z" fill="#CE7700"/>
<path opacity="0.3" d="M978.882 407.677C952.29 404.397 927.636 389.088 915.707 365.279C912.278 358.37 909.643 351.014 905.866 344.105C901.989 336.948 896.422 330.486 889.96 325.516C883.648 320.545 876.242 316.768 868.786 314.084C857.752 310.008 846.568 306.578 835.136 303.745C845.723 308.765 856.41 313.288 866.897 318.408C877.037 323.031 886.68 329.641 893.589 338.29C903.281 350.02 906.214 366.721 915.956 378.749C930.47 397.736 955.222 409.367 978.882 407.677Z" fill="black"/>
<g opacity="0.3">
<path d="M838.715 323.527C839.709 321.042 843.238 320.048 846.469 321.092C857.106 324.571 868.587 330.735 875.993 337.594C878.131 339.532 880.119 341.669 880.467 344.254C880.616 345.199 880.467 346.143 879.92 346.938C878.23 349.523 874.204 349.274 870.725 348.728C863.915 347.634 857.056 345.795 851.191 342.465C845.326 339.184 840.455 334.313 838.814 328.945C838.268 327.106 838.069 325.217 838.765 323.527H838.715Z" fill="white"/>
</g>
<path opacity="0.3" d="M848.159 300.415C874.999 288.287 909.395 294.798 930.718 314.829C905.021 300.862 877.087 295.444 848.159 300.415Z" fill="white"/>
<path opacity="0.3" d="M940.162 322.434C945.878 322.832 949.606 325.963 950.898 331.58C945.182 331.182 941.454 328.051 940.162 322.434Z" fill="white"/>
<path opacity="0.3" d="M899.404 362.645C908.5 383.62 923.66 399.476 944.138 409.566C921.274 406.733 901.194 385.609 899.404 362.645Z" fill="white"/>
<path d="M1369.31 269.697C1369.31 270.343 1373.59 331.033 1308.32 346.491C1236.05 363.589 1221.59 303.993 1221.59 303.993L1369.31 269.747V269.697Z" fill="#CE7700"/>
<path opacity="0.3" d="M1369.31 269.697C1369.31 270.343 1373.59 331.033 1308.32 346.491C1236.05 363.589 1221.59 303.993 1221.59 303.993L1369.31 269.747V269.697Z" fill="black"/>
<path d="M1365.04 256.675C1365.04 256.675 1385.47 281.129 1337.25 311.151C1289.04 341.123 1248.93 334.413 1232.23 318.905C1215.53 303.397 1223.98 295.444 1223.98 295.444C1223.98 295.444 1218.95 291.518 1224.72 276.706C1230.49 261.894 1252.21 233.91 1299.23 227.1C1340.88 221.036 1367.07 237.141 1365.04 256.675Z" fill="#CE7700"/>
<path opacity="0.3" d="M1365.19 256.227C1349.33 271.835 1326.66 279.986 1304.94 275.463C1298.68 274.171 1292.52 272.033 1286.06 270.94C1279.4 269.747 1272.34 270.045 1265.78 271.685C1259.32 273.226 1253 276.109 1247.44 279.539C1239.09 284.609 1231.08 290.126 1223.38 296.09C1232.13 291.816 1240.58 287.193 1249.32 282.968C1257.58 278.793 1266.82 275.91 1276.02 275.861C1288.64 275.612 1301.02 282.322 1313.89 282.173C1333.72 282.521 1354.1 272.381 1365.19 256.128V256.227Z" fill="black"/>
<g opacity="0.3">
<path d="M1238.14 304.043C1237.1 302.105 1238.24 299.272 1240.58 297.731C1248.33 292.611 1258.27 288.337 1266.52 287.044C1268.91 286.696 1271.29 286.498 1273.13 287.591C1273.83 287.989 1274.33 288.585 1274.57 289.331C1275.37 291.766 1273.13 294.252 1271 296.24C1266.77 300.117 1262.05 303.596 1256.83 305.733C1251.61 307.871 1245.99 308.517 1241.62 306.827C1240.13 306.23 1238.79 305.385 1238.04 304.043H1238.14Z" fill="white"/>
</g>
<path opacity="0.3" d="M1227.95 285.951C1233.32 261.993 1255.74 242.559 1279.94 239.626C1257.77 249.766 1240.23 264.727 1227.95 285.951Z" fill="white"/>
<path opacity="0.3" d="M1289.73 237.439C1292.82 233.363 1296.84 232.568 1301.22 235.153C1298.13 239.228 1294.11 240.024 1289.73 237.439Z" fill="white"/>
<path opacity="0.3" d="M1294.85 284.708C1313.44 289.032 1330.99 287.392 1348.49 279.787C1335.21 293.704 1310.46 295.991 1294.85 284.708Z" fill="white"/>
</svg>
